<svg xmlns="http://www.w3.org/2000/svg" xmlns:xlink="http://www.w3.org/1999/xlink" width="500" zoomAndPan="magnify" viewBox="0 0 1024.5 576" height="36" preserveAspectRatio="xMidYMid meet" version="1.0"><defs><filter x="0%" y="0%" width="100%" height="100%" id="945c8d1dad"><feColorMatrix values="0 0 0 0 1 0 0 0 0 1 0 0 0 0 1 0 0 0 1 0" color-interpolation-filters="sRGB"/></filter><g/><clipPath id="df2dbd4521"><path d="M 472 274.820312 L 477 274.820312 L 477 301 L 472 301 Z M 472 274.820312 " clip-rule="nonzero"/></clipPath><clipPath id="40c4d073ae"><path d="M 477 274.820312 L 483.75 274.820312 L 483.75 301 L 477 301 Z M 477 274.820312 " clip-rule="nonzero"/></clipPath><mask id="f818cb1ee1"><g filter="url(#945c8d1dad)"><rect x="-102.45" width="1229.4" fill="#000000" y="-57.6" height="691.2" fill-opacity="0.3"/></g></mask><clipPath id="2f47073a32"><path d="M 0.328125 0.0820312 L 0.808594 0.0820312 L 0.808594 0.5625 L 0.328125 0.5625 Z M 0.328125 0.0820312 " clip-rule="nonzero"/></clipPath><clipPath id="1365e0f738"><rect x="0" width="1" y="0" height="1"/></clipPath><mask id="482a4dd913"><g filter="url(#945c8d1dad)"><rect x="-102.45" width="1229.4" fill="#000000" y="-57.6" height="691.2" fill-opacity="0.3"/></g></mask><clipPath id="111bfb39b7"><path d="M 0.0507812 1 L 2.207031 1 L 2.207031 6.714844 L 0.0507812 6.714844 Z M 0.0507812 1 " clip-rule="nonzero"/></clipPath><clipPath id="5c4e53cc80"><rect x="0" width="3" y="0" height="7"/></clipPath><mask id="6de50045d7"><g filter="url(#945c8d1dad)"><rect x="-102.45" width="1229.4" fill="#000000" y="-57.6" height="691.2" fill-opacity="0.3"/></g></mask><clipPath id="6ff457f5f5"><path d="M 0.527344 1 L 2.925781 1 L 2.925781 6.714844 L 0.527344 6.714844 Z M 0.527344 1 " clip-rule="nonzero"/></clipPath><clipPath id="086ad0a0b5"><rect x="0" width="3" y="0" height="7"/></clipPath><clipPath id="4cca76b0e6"><path d="M 464.273438 288 L 483.765625 288 L 483.765625 294.746094 L 464.273438 294.746094 Z M 464.273438 288 " clip-rule="nonzero"/></clipPath><clipPath id="28b1963ec4"><path d="M 465 293 L 468 293 L 468 294.746094 L 465 294.746094 Z M 465 293 " clip-rule="nonzero"/></clipPath><clipPath id="2c7f5513cb"><path d="M 481 288 L 483.765625 288 L 483.765625 291 L 481 291 Z M 481 288 " clip-rule="nonzero"/></clipPath><clipPath id="9f05817c9c"><path d="M 464.273438 292 L 468 292 L 468 294 L 464.273438 294 Z M 464.273438 292 " clip-rule="nonzero"/></clipPath></defs><g clip-path="url(#df2dbd4521)"><path fill="#4d433a" d="M 473.578125 285.726562 C 473.578125 287.066406 472.292969 296.382812 473.023438 299.765625 C 473.328125 301.179688 474.914062 300.996094 475.179688 299.765625 C 475.851562 296.644531 474.648438 293.769531 474.648438 285.65625 C 474.648438 284.542969 475.507812 284.515625 475.96875 283.082031 C 476.382812 281.800781 475.800781 274.90625 475.609375 274.90625 C 475.394531 274.90625 475.5 280.875 475.09375 280.875 C 474.683594 280.875 474.890625 274.988281 474.628906 274.90625 C 474.371094 274.824219 474.5625 280.875 474.078125 280.875 C 473.59375 280.875 473.910156 274.90625 473.648438 274.90625 C 473.390625 274.90625 473.460938 280.875 473.066406 280.875 C 472.628906 280.875 472.863281 274.90625 472.667969 274.90625 C 472.335938 274.90625 471.949219 281.390625 472.15625 282.761719 C 472.363281 284.128906 473.578125 284.390625 473.578125 285.726562 Z M 473.578125 285.726562 " fill-opacity="1" fill-rule="nonzero"/></g><g clip-path="url(#40c4d073ae)"><path fill="#4d433a" d="M 480.175781 285.441406 C 480.175781 293.589844 478.867188 296.90625 479.621094 299.78125 C 479.976562 301.152344 481.511719 300.992188 481.777344 299.78125 C 482.386719 296.996094 481.246094 293.425781 481.246094 285.441406 C 481.246094 284.511719 483.570312 284.671875 483.570312 281.492188 C 483.570312 277.515625 482.089844 274.882812 480.679688 274.882812 C 479.367188 274.882812 477.9375 277.769531 477.9375 281.492188 C 477.9375 284.476562 480.175781 284.675781 480.175781 285.441406 Z M 480.175781 285.441406 " fill-opacity="1" fill-rule="nonzero"/></g><path fill="#4d433a" d="M 467.832031 288.707031 C 467.832031 295.179688 466.523438 297.445312 467.277344 299.730469 C 467.636719 300.820312 469.167969 300.691406 469.433594 299.730469 C 470.042969 297.519531 468.902344 295.894531 468.902344 288.796875 C 468.902344 287.925781 470.179688 286.714844 470.179688 284.480469 C 470.179688 280.5 469.601562 275.09375 468.339844 275.09375 C 467.128906 275.09375 467.40625 282.066406 467.40625 285.878906 C 467.40625 287.515625 467.832031 287.941406 467.832031 288.707031 Z M 467.832031 288.707031 " fill-opacity="1" fill-rule="nonzero"/><g mask="url(#f818cb1ee1)"><g transform="matrix(1, 0, 0, 1, 472, 280)"><g clip-path="url(#1365e0f738)"><g clip-path="url(#2f47073a32)"><path fill="#4d433a" d="M 0.589844 0.238281 C 0.585938 0.28125 0.566406 0.308594 0.542969 0.304688 C 0.523438 0.300781 0.507812 0.261719 0.511719 0.21875 C 0.511719 0.179688 0.53125 0.148438 0.554688 0.152344 C 0.574219 0.160156 0.589844 0.195312 0.589844 0.238281 Z M 0.589844 0.238281 " fill-opacity="0.777" fill-rule="nonzero"/></g></g></g></g><g mask="url(#482a4dd913)"><g transform="matrix(1, 0, 0, 1, 473, 294)"><g clip-path="url(#5c4e53cc80)"><g clip-path="url(#111bfb39b7)"><path fill="#4d433a" d="M 0.171875 5.722656 C 0.300781 6.308594 0.851562 6.71875 1.421875 6.453125 C 2.050781 6.15625 2.144531 5.179688 2.148438 4.648438 C 2.15625 3.707031 2.054688 3.011719 1.941406 2.089844 C 1.90625 1.804688 1.851562 1.273438 1.792969 1.007812 C 1.792969 1.75 1.90625 2.472656 1.769531 3.210938 C 1.5625 3.902344 1.792969 5.171875 1.128906 5.632812 C 0.800781 5.863281 0.207031 5.410156 0.171875 5.722656 Z M 0.171875 5.722656 " fill-opacity="1" fill-rule="nonzero"/></g></g></g></g><g mask="url(#6de50045d7)"><g transform="matrix(1, 0, 0, 1, 479, 294)"><g clip-path="url(#086ad0a0b5)"><g clip-path="url(#6ff457f5f5)"><path fill="#4d433a" d="M 0.808594 5.722656 C 0.941406 6.308594 1.492188 6.71875 2.0625 6.453125 C 2.691406 6.15625 2.78125 5.179688 2.789062 4.648438 C 2.796875 3.707031 2.695312 3.011719 2.582031 2.089844 C 2.546875 1.804688 2.492188 1.273438 2.433594 1.007812 C 2.429688 1.75 2.546875 2.472656 2.410156 3.210938 C 2.203125 3.902344 2.433594 5.171875 1.769531 5.632812 C 1.4375 5.863281 0.847656 5.410156 0.808594 5.722656 Z M 0.808594 5.722656 " fill-opacity="1" fill-rule="nonzero"/></g></g></g></g><g clip-path="url(#4cca76b0e6)"><path fill="#ebb22f" d="M 468.113281 288.011719 C 467.511719 288.011719 466.910156 288.046875 466.320312 288.117188 C 466.277344 288.125 466.195312 288.140625 466.097656 288.160156 C 465.5 288.261719 464.414062 288.449219 464.335938 289.214844 C 464.308594 290.585938 464.292969 291.355469 464.277344 292.664062 C 464.289062 292.660156 464.304688 292.652344 464.316406 292.644531 C 464.339844 292.632812 464.351562 292.625 464.367188 292.621094 C 464.984375 292.34375 466.175781 292.285156 467.070312 292.285156 C 467.242188 292.285156 467.347656 292.285156 467.347656 292.285156 L 467.515625 292.292969 C 470.085938 292.335938 472.125 292.976562 474.097656 293.597656 C 476.117188 294.234375 478.210938 294.890625 480.859375 294.890625 C 481.214844 294.890625 481.578125 294.878906 481.941406 294.855469 C 482.753906 294.757812 483.9375 294.394531 484.007812 293.886719 L 484.019531 292.578125 C 484.023438 291.796875 484.03125 290.988281 484.046875 290.132812 C 483.6875 290.304688 483.035156 290.386719 482.105469 290.386719 C 481.632812 290.386719 481.242188 290.367188 481.132812 290.359375 L 480.972656 290.347656 L 480.972656 290.324219 C 478.8125 290.203125 476.84375 289.679688 474.9375 289.171875 C 472.789062 288.601562 470.5625 288.011719 468.113281 288.011719 " fill-opacity="1" fill-rule="nonzero"/></g><path fill="#ebb22f" d="M 482.679688 288.914062 L 482.664062 288.242188 C 482.535156 288.234375 482.410156 288.230469 482.296875 288.230469 C 481.53125 288.230469 481.316406 288.40625 481.300781 288.453125 C 481.296875 288.46875 481.300781 288.492188 481.300781 288.511719 C 481.308594 288.558594 481.429688 288.730469 482.679688 288.914062 " fill-opacity="1" fill-rule="nonzero"/><g clip-path="url(#28b1963ec4)"><path fill="#ebb22f" d="M 465.804688 293.835938 L 465.792969 294.464844 C 466.753906 294.457031 467.027344 294.277344 467.097656 294.199219 C 467.113281 294.1875 467.117188 294.175781 467.121094 294.167969 C 467.121094 294.160156 467.121094 294.148438 467.117188 294.140625 C 467.09375 294.085938 466.9375 293.933594 465.804688 293.835938 " fill-opacity="1" fill-rule="nonzero"/></g><g clip-path="url(#2c7f5513cb)"><path fill="#ebb22f" d="M 482.105469 290.054688 C 483.421875 290.054688 483.980469 289.878906 484.0625 289.714844 C 484.027344 289.664062 483.863281 289.449219 482.925781 289.289062 C 482.871094 289.28125 482.8125 289.273438 482.757812 289.261719 L 482.710938 289.257812 C 482.171875 289.179688 481.777344 289.097656 481.507812 289.011719 C 481.429688 288.984375 481.359375 288.957031 481.296875 288.929688 L 481.304688 290.035156 C 481.46875 290.042969 481.765625 290.054688 482.105469 290.054688 " fill-opacity="1" fill-rule="nonzero"/></g><g clip-path="url(#9f05817c9c)"><path fill="#ebb22f" d="M 465.230469 292.75 C 464.820312 292.820312 464.359375 292.898438 464.28125 293.117188 L 464.285156 293.128906 C 464.3125 293.171875 464.507812 293.390625 465.5625 293.480469 L 465.65625 293.488281 C 466.40625 293.542969 466.875 293.625 467.140625 293.742188 L 467.171875 292.621094 C 466.578125 292.625 465.976562 292.660156 465.371094 292.726562 L 465.230469 292.75 " fill-opacity="1" fill-rule="nonzero"/></g><g fill="#ebb22f" fill-opacity="1"><g transform="translate(487.889229, 284.928664)"><g><path d="M 7.296875 -13.28125 C 6.984375 -13.28125 7.046875 -13.15625 6.890625 -12.984375 C 6.796875 -12.875 5.515625 -12.515625 5.296875 -12.453125 C 3.84375 -11.96875 1.6875 -11.21875 0.40625 -10.265625 C -0.515625 -9.578125 -0.3125 -8.8125 0.96875 -8.71875 C 1.3125 -8.703125 1.578125 -8.6875 1.8125 -8.6875 C 2.34375 -8.6875 2.703125 -8.734375 3.46875 -8.828125 C 3.96875 -8.875 3.734375 -9.1875 3.609375 -9.25 C 3.578125 -9.265625 3.53125 -9.265625 3.4375 -9.265625 C 3.140625 -9.265625 2.53125 -9.21875 1.90625 -9.21875 C 1.515625 -9.21875 1.09375 -9.234375 0.75 -9.3125 C 0.578125 -9.328125 0.578125 -9.375 0.4375 -9.40625 C 0.859375 -10.21875 3.859375 -11.359375 4.9375 -11.671875 C 5.265625 -11.78125 6.3125 -12.1875 6.65625 -12.1875 C 6.28125 -11.375 5.65625 -6.078125 5.5625 -5 C 5.53125 -4.671875 5.453125 -4.671875 5.1875 -4.53125 C 4.484375 -4.21875 2.734375 -3.515625 2.734375 -2.703125 C 2.734375 -2.53125 3.03125 -2.40625 3.265625 -2.40625 C 3.46875 -2.40625 3.625 -2.53125 3.421875 -2.859375 C 3.765625 -3.09375 4.984375 -3.859375 5.453125 -3.890625 C 5.40625 -3.75 4.96875 1.234375 4.9375 1.90625 C 4.890625 2.671875 4.71875 5.359375 4.953125 5.890625 C 5.015625 6.03125 5.140625 6.171875 5.296875 6.15625 C 5.671875 6.125 5.53125 5.296875 5.515625 4.59375 C 5.515625 3.765625 5.6875 1.859375 5.71875 0.90625 L 5.9375 -1.4375 C 5.953125 -2.046875 6.125 -3.140625 6.140625 -3.75 C 6.171875 -4.46875 6.234375 -4.28125 7.609375 -4.828125 C 8.84375 -5.296875 10.078125 -5.765625 11.40625 -5.765625 C 11.609375 -5.765625 11.609375 -5.8125 11.53125 -6.15625 C 11.390625 -6.234375 11.171875 -6.25 10.9375 -6.25 C 10.1875 -6.25 9.125 -6.015625 8.71875 -5.890625 L 6.296875 -5 C 6.296875 -5.6875 6.40625 -6.359375 6.515625 -6.953125 C 6.765625 -8.8125 7.046875 -10.671875 7.453125 -12.453125 C 8.1875 -12.609375 8.890625 -12.84375 9.6875 -12.984375 C 11.015625 -13.296875 14.984375 -14.203125 17.21875 -14.203125 C 17.65625 -14.203125 18.03125 -14.15625 18.296875 -14.078125 C 18.515625 -13.984375 18.671875 -13.953125 18.6875 -13.65625 C 18.875 -13.65625 18.890625 -13.671875 19.03125 -13.6875 C 19.0625 -13.828125 19.09375 -13.828125 19.09375 -13.96875 C 19.09375 -14.5625 17.859375 -14.75 17.21875 -14.75 C 14.8125 -14.75 10.265625 -13.84375 7.8125 -13.171875 C 7.703125 -13.15625 7.640625 -13.140625 7.578125 -13.140625 C 7.40625 -13.140625 7.53125 -13.28125 7.296875 -13.28125 Z M 7.296875 -13.28125 "/></g></g></g><g fill="#ebb22f" fill-opacity="1"><g transform="translate(499.92731, 284.928664)"><g><path d="M 0.875 -0.40625 C 0.484375 -1.203125 1.296875 -2.796875 1.421875 -3.296875 C 2.03125 -2.890625 1.59375 -0.59375 0.875 -0.40625 Z M 0 -1 C 0 -0.09375 0.390625 0.375 0.84375 0.375 C 1.375 0.375 2.015625 -0.25 2.28125 -1.453125 C 2.671875 -3.265625 1.828125 -3.5625 1.734375 -3.890625 C 1.828125 -4.03125 1.984375 -4.140625 2.03125 -4.265625 C 2.09375 -4.40625 1.984375 -4.6875 1.75 -4.6875 C 0.890625 -4.6875 0 -1.796875 0 -1 Z M 0 -1 "/></g></g></g><g fill="#ebb22f" fill-opacity="1"><g transform="translate(503.0158, 284.928664)"><g><path d="M 0.875 -0.40625 C 0.484375 -1.203125 1.296875 -2.796875 1.421875 -3.296875 C 2.03125 -2.890625 1.59375 -0.59375 0.875 -0.40625 Z M 0 -1 C 0 -0.09375 0.390625 0.375 0.84375 0.375 C 1.375 0.375 2.015625 -0.25 2.28125 -1.453125 C 2.671875 -3.265625 1.828125 -3.5625 1.734375 -3.890625 C 1.828125 -4.03125 1.984375 -4.140625 2.03125 -4.265625 C 2.09375 -4.40625 1.984375 -4.6875 1.75 -4.6875 C 0.890625 -4.6875 0 -1.796875 0 -1 Z M 0 -1 "/></g></g></g><g fill="#ebb22f" fill-opacity="1"><g transform="translate(506.10429, 284.928664)"><g><path d="M 0.609375 -1.28125 C 0.609375 -2.375 0.984375 -3.546875 1.59375 -4.296875 C 1.765625 -4.546875 1.96875 -4.765625 2.375 -4.828125 C 2.34375 -4.5625 1.078125 -1.125 0.6875 -1.125 C 0.625 -1.125 0.609375 -1.15625 0.609375 -1.28125 Z M 2.609375 -5.296875 C 2.34375 -5.296875 2.453125 -5.359375 2.265625 -5.359375 C 0.671875 -5.359375 -0.859375 -0.515625 0.609375 -0.515625 C 1.28125 -0.515625 1.609375 -1.390625 1.859375 -1.9375 L 2.46875 -3.421875 C 2.53125 -3.578125 2.515625 -3.546875 2.609375 -3.65625 C 2.609375 -2.953125 2.28125 2.953125 3.078125 2.953125 C 3.703125 2.953125 3.265625 2.5625 3.25 1.421875 C 3.21875 -1.53125 2.984375 -4.609375 3.84375 -7.46875 C 3.953125 -7.890625 4.59375 -9.65625 3.953125 -9.65625 C 3.9375 -9.65625 3.890625 -9.640625 3.859375 -9.640625 C 3.4375 -9.546875 3.25 -8.296875 3.15625 -7.9375 L 2.796875 -5.953125 C 2.71875 -5.71875 2.609375 -5.546875 2.609375 -5.296875 Z M 2.609375 -5.296875 "/></g></g></g><g fill="#ebb22f" fill-opacity="1"><g transform="translate(510.035092, 284.928664)"><g><path d="M 1.453125 0.0625 C 2.28125 0.0625 2.953125 -0.703125 3.375 -1.140625 C 3.65625 -1.421875 4.703125 -2.59375 4.703125 -2.9375 C 4.703125 -3.09375 4.65625 -3.140625 4.578125 -3.140625 C 4.25 -3.140625 3.3125 -1.890625 3.25 -1.8125 C 2.984375 -1.46875 2.078125 -0.546875 1.515625 -0.546875 C 1.03125 -0.546875 0.84375 -1.578125 0.84375 -2.109375 C 0.84375 -3.890625 1.546875 -4.6875 0.734375 -4.6875 C 0.390625 -4.6875 0.203125 -3.890625 0.15625 -3.53125 C -0.03125 -2.625 0 -1.421875 0.421875 -0.625 C 0.609375 -0.296875 0.984375 0.0625 1.453125 0.0625 Z M 0.890625 -6.890625 C 0.890625 -6.515625 1.125 -6.328125 1.375 -6.328125 C 1.71875 -6.328125 2.09375 -6.71875 1.75 -7.375 C 1.65625 -7.5625 1.53125 -7.640625 1.40625 -7.640625 C 1.140625 -7.640625 0.890625 -7.296875 0.890625 -6.890625 Z M 0.890625 -6.890625 "/></g></g></g><g fill="#ebb22f" fill-opacity="1"><g transform="translate(514.036089, 284.928664)"><g><path d="M 0.8125 -3.171875 C 0.9375 -3.609375 1.515625 -4.296875 1.984375 -4.390625 C 1.9375 -3.828125 1.25 -3.40625 0.8125 -3.171875 Z M 0.015625 -2.75 C 0.015625 -2.265625 0 -1.828125 0.421875 -1.40625 C 0.71875 -1.109375 1.078125 -0.984375 1.4375 -0.984375 C 2.515625 -0.984375 3.71875 -2.046875 4.375 -2.703125 C 4.53125 -2.890625 4.53125 -2.90625 4.46875 -3.171875 C 3.953125 -3.171875 4.234375 -3.109375 3.515625 -2.546875 C 3.390625 -2.453125 3.328125 -2.390625 3.1875 -2.28125 C 2.84375 -2.015625 2.109375 -1.515625 1.484375 -1.515625 C 1.28125 -1.515625 1.078125 -1.578125 0.90625 -1.734375 C 0.609375 -2.03125 0.65625 -2.3125 0.65625 -2.6875 C 1.1875 -2.71875 1.828125 -3.234375 2.109375 -3.546875 C 2.65625 -4.234375 2.65625 -4.9375 1.875 -4.9375 C 1.03125 -4.9375 0.015625 -3.625 0.015625 -2.75 Z M 0.015625 -2.75 "/></g></g></g><g fill="#ebb22f" fill-opacity="1"><g transform="translate(517.844052, 284.928664)"><g><path d="M -4.9375 -7.828125 C -4.9375 -7.578125 -4.75 -7.53125 -4.5625 -7.53125 C -4.453125 -7.53125 -4.359375 -7.546875 -4.265625 -7.5625 C -4.109375 -7.890625 -4.28125 -7.828125 -3.84375 -8 C -3.625 -8.09375 -3.46875 -8.21875 -3.265625 -8.296875 C -2.171875 -8.71875 -1.171875 -9.015625 -0.015625 -9.296875 C 0.15625 -9.359375 0.5625 -9.421875 0.671875 -9.453125 L 0.515625 -7.828125 C 0.484375 -7.59375 0.46875 -7.21875 0.4375 -6.984375 C 0.34375 -6.46875 0.328125 -4.109375 0.328125 -3.4375 L 0.28125 -2.609375 C 0.28125 -1.328125 0.234375 0.75 0.328125 2.015625 C 0.328125 2.4375 0.34375 3.078125 0.8125 3.078125 C 1.265625 3.078125 1 1.859375 1 1.453125 C 0.96875 0.6875 0.984375 -2.828125 1.03125 -3.34375 C 1.078125 -3.71875 1.03125 -4.515625 1.03125 -5.015625 C 1.03125 -5.265625 1.09375 -5.265625 1.09375 -5.484375 C 1.09375 -5.671875 1.078125 -5.875 1.09375 -6.03125 L 1.4375 -9.640625 C 1.859375 -9.71875 4.53125 -10.234375 5.484375 -10.234375 C 5.609375 -10.234375 5.703125 -10.234375 5.765625 -10.21875 C 5.984375 -10.15625 5.9375 -10.234375 5.984375 -10.046875 C 6.65625 -10.046875 6.4375 -10.75 5.609375 -10.75 C 4.546875 -10.75 3.515625 -10.578125 2.484375 -10.390625 C 2.234375 -10.359375 1.859375 -10.25 1.578125 -10.25 C 1.578125 -10.8125 1.9375 -10.359375 1.9375 -10.8125 C 1.9375 -10.921875 1.90625 -10.984375 1.90625 -11.03125 C 1.890625 -11.21875 1.9375 -11.078125 1.9375 -11.28125 C 1.9375 -11.5625 1.796875 -11.796875 1.59375 -11.796875 C 1.375 -11.796875 1.09375 -11.46875 0.90625 -10.53125 C 0.796875 -9.9375 0.84375 -10.09375 0.109375 -9.890625 C -0.890625 -9.609375 -4.9375 -8.609375 -4.9375 -7.828125 Z M -4.9375 -7.828125 "/></g></g></g><g fill="#ebb22f" fill-opacity="1"><g transform="translate(519.879645, 284.928664)"><g><path d="M 0.8125 -3.171875 C 0.9375 -3.609375 1.515625 -4.296875 1.984375 -4.390625 C 1.9375 -3.828125 1.25 -3.40625 0.8125 -3.171875 Z M 0.015625 -2.75 C 0.015625 -2.265625 0 -1.828125 0.421875 -1.40625 C 0.71875 -1.109375 1.078125 -0.984375 1.4375 -0.984375 C 2.515625 -0.984375 3.71875 -2.046875 4.375 -2.703125 C 4.53125 -2.890625 4.53125 -2.90625 4.46875 -3.171875 C 3.953125 -3.171875 4.234375 -3.109375 3.515625 -2.546875 C 3.390625 -2.453125 3.328125 -2.390625 3.1875 -2.28125 C 2.84375 -2.015625 2.109375 -1.515625 1.484375 -1.515625 C 1.28125 -1.515625 1.078125 -1.578125 0.90625 -1.734375 C 0.609375 -2.03125 0.65625 -2.3125 0.65625 -2.6875 C 1.1875 -2.71875 1.828125 -3.234375 2.109375 -3.546875 C 2.65625 -4.234375 2.65625 -4.9375 1.875 -4.9375 C 1.03125 -4.9375 0.015625 -3.625 0.015625 -2.75 Z M 0.015625 -2.75 "/></g></g></g><g fill="#ebb22f" fill-opacity="1"><g transform="translate(523.687607, 284.928664)"><g><path d="M 0 -2.40625 C 0 -1.296875 0.484375 -0.265625 1.703125 -0.265625 C 2.953125 -0.265625 4.046875 -1.46875 4.765625 -2.390625 C 4.859375 -2.484375 4.984375 -2.65625 5.03125 -2.765625 C 5.140625 -3 5.046875 -3.1875 4.890625 -3.1875 C 4.8125 -3.1875 4.671875 -3.109375 4.546875 -2.9375 C 3.890625 -2.046875 2.9375 -0.84375 1.71875 -0.84375 C 1.296875 -0.84375 1.109375 -1.078125 0.984375 -1.390625 C 0.5625 -2.25 1.171875 -3.796875 1.796875 -4.21875 C 1.828125 -3.90625 1.96875 -3.75 2.109375 -3.75 C 2.234375 -3.75 2.328125 -3.890625 2.328125 -4.21875 C 2.328125 -4.671875 2.125 -4.90625 1.765625 -4.90625 C 0.75 -4.90625 0 -3.234375 0 -2.40625 Z M 0 -2.40625 "/></g></g></g><g fill="#ebb22f" fill-opacity="1"><g transform="translate(527.934278, 284.928664)"><g><path d="M -0.109375 -1.453125 C -0.109375 -0.9375 -0.046875 2.296875 0.578125 2.296875 C 0.90625 2.296875 1.015625 2.234375 1.140625 1.859375 C 1.34375 1.203125 1.484375 0.46875 1.765625 -0.265625 C 1.984375 -0.796875 2.65625 -2.453125 2.984375 -2.703125 C 2.984375 -2.203125 3 -1.421875 3.078125 -1.03125 C 3.1875 -0.3125 3.453125 0 3.828125 0 C 4.65625 0 5.453125 -1.46875 5.8125 -2.109375 C 5.984375 -2.453125 6.21875 -2.65625 6.109375 -3.078125 C 6.03125 -3.09375 5.96875 -3.109375 5.90625 -3.109375 C 5.765625 -3.109375 5.671875 -2.984375 5.453125 -2.609375 C 5.3125 -2.328125 5.171875 -2.09375 5.015625 -1.828125 C 4.71875 -1.40625 4.359375 -0.6875 3.828125 -0.5625 C 3.59375 -1 3.59375 -1.40625 3.59375 -2.078125 C 3.59375 -2.390625 3.59375 -3.453125 3.21875 -3.453125 C 2.6875 -3.453125 2.53125 -3.09375 2.265625 -2.609375 C 1.515625 -1.25 1.34375 -0.71875 0.875 0.6875 L 0.734375 1.015625 L 0.6875 -0.953125 C 0.6875 -2.703125 0.859375 -4.765625 1.125 -6.390625 C 1.203125 -6.984375 1.46875 -7.8125 1.34375 -8.359375 C 1.234375 -8.375 1.140625 -8.390625 1.078125 -8.390625 C 0.890625 -8.390625 0.84375 -8.265625 0.6875 -7.8125 C 0.40625 -6.6875 0.125 -5.546875 0.0625 -4.375 C 0.046875 -4.109375 0.015625 -3.703125 0 -3.4375 Z M -0.109375 -1.453125 "/></g></g></g><g fill="#4d433a" fill-opacity="1"><g transform="translate(499.250766, 296.895302)"><g><path d="M 2.78125 -0.703125 C 2.78125 -0.554688 2.75 -0.4375 2.6875 -0.34375 C 2.632812 -0.25 2.554688 -0.175781 2.453125 -0.125 C 2.359375 -0.0820312 2.242188 -0.0507812 2.109375 -0.03125 C 1.972656 -0.0078125 1.828125 0 1.671875 0 L 0.421875 0 C 0.398438 0 0.378906 -0.00390625 0.359375 -0.015625 C 0.347656 -0.0351562 0.34375 -0.0546875 0.34375 -0.078125 L 0.34375 -2.34375 C 0.34375 -2.363281 0.347656 -2.378906 0.359375 -2.390625 C 0.378906 -2.410156 0.40625 -2.421875 0.4375 -2.421875 L 1.421875 -2.421875 C 1.523438 -2.421875 1.628906 -2.421875 1.734375 -2.421875 C 1.835938 -2.421875 1.929688 -2.410156 2.015625 -2.390625 C 2.109375 -2.378906 2.191406 -2.363281 2.265625 -2.34375 C 2.347656 -2.320312 2.414062 -2.285156 2.46875 -2.234375 C 2.53125 -2.191406 2.578125 -2.132812 2.609375 -2.0625 C 2.640625 -2 2.65625 -1.914062 2.65625 -1.8125 C 2.65625 -1.726562 2.640625 -1.65625 2.609375 -1.59375 C 2.585938 -1.539062 2.554688 -1.492188 2.515625 -1.453125 C 2.484375 -1.421875 2.445312 -1.390625 2.40625 -1.359375 C 2.363281 -1.335938 2.320312 -1.320312 2.28125 -1.3125 C 2.238281 -1.300781 2.203125 -1.296875 2.171875 -1.296875 C 2.140625 -1.296875 2.113281 -1.296875 2.09375 -1.296875 L 2.078125 -1.296875 C 2.171875 -1.285156 2.257812 -1.269531 2.34375 -1.25 C 2.425781 -1.226562 2.5 -1.191406 2.5625 -1.140625 C 2.625 -1.097656 2.675781 -1.039062 2.71875 -0.96875 C 2.757812 -0.90625 2.78125 -0.816406 2.78125 -0.703125 Z M 2.46875 -1.8125 C 2.46875 -1.882812 2.453125 -1.945312 2.421875 -2 C 2.398438 -2.0625 2.351562 -2.113281 2.28125 -2.15625 C 2.21875 -2.195312 2.125 -2.226562 2 -2.25 C 1.875 -2.269531 1.710938 -2.28125 1.515625 -2.28125 L 0.53125 -2.28125 L 0.53125 -1.34375 L 1.5625 -1.34375 C 1.71875 -1.34375 1.851562 -1.347656 1.96875 -1.359375 C 2.082031 -1.378906 2.175781 -1.40625 2.25 -1.4375 C 2.320312 -1.46875 2.375 -1.515625 2.40625 -1.578125 C 2.445312 -1.640625 2.46875 -1.71875 2.46875 -1.8125 Z M 2.59375 -0.703125 C 2.59375 -0.804688 2.566406 -0.890625 2.515625 -0.953125 C 2.472656 -1.023438 2.40625 -1.078125 2.3125 -1.109375 C 2.226562 -1.148438 2.117188 -1.175781 1.984375 -1.1875 C 1.859375 -1.207031 1.71875 -1.21875 1.5625 -1.21875 L 0.53125 -1.21875 L 0.53125 -0.140625 L 1.75 -0.140625 C 1.945312 -0.140625 2.101562 -0.15625 2.21875 -0.1875 C 2.332031 -0.21875 2.414062 -0.257812 2.46875 -0.3125 C 2.519531 -0.363281 2.550781 -0.421875 2.5625 -0.484375 C 2.582031 -0.554688 2.59375 -0.628906 2.59375 -0.703125 Z M 2.59375 -0.703125 "/></g></g></g><g fill="#4d433a" fill-opacity="1"><g transform="translate(502.31466, 296.895302)"><g><path d="M 1.296875 -1.578125 C 1.171875 -1.578125 1.054688 -1.566406 0.953125 -1.546875 C 0.847656 -1.523438 0.753906 -1.488281 0.671875 -1.4375 C 0.597656 -1.382812 0.539062 -1.316406 0.5 -1.234375 C 0.46875 -1.148438 0.445312 -1.050781 0.4375 -0.9375 L 2.078125 -0.9375 L 2.078125 -1.046875 C 2.078125 -1.117188 2.0625 -1.1875 2.03125 -1.25 C 2.007812 -1.320312 1.96875 -1.378906 1.90625 -1.421875 C 1.84375 -1.472656 1.757812 -1.507812 1.65625 -1.53125 C 1.5625 -1.5625 1.441406 -1.578125 1.296875 -1.578125 Z M 1.1875 -0.109375 C 1.320312 -0.109375 1.441406 -0.113281 1.546875 -0.125 C 1.648438 -0.144531 1.738281 -0.164062 1.8125 -0.1875 C 1.882812 -0.21875 1.941406 -0.242188 1.984375 -0.265625 C 2.035156 -0.296875 2.078125 -0.320312 2.109375 -0.34375 C 2.117188 -0.34375 2.125 -0.34375 2.125 -0.34375 C 2.144531 -0.34375 2.160156 -0.332031 2.171875 -0.3125 C 2.179688 -0.300781 2.1875 -0.285156 2.1875 -0.265625 C 2.1875 -0.253906 2.179688 -0.242188 2.171875 -0.234375 C 2.160156 -0.210938 2.128906 -0.1875 2.078125 -0.15625 C 2.035156 -0.132812 1.972656 -0.109375 1.890625 -0.078125 C 1.816406 -0.0546875 1.722656 -0.0351562 1.609375 -0.015625 C 1.492188 0.00390625 1.351562 0.015625 1.1875 0.015625 C 1.019531 0.015625 0.875 -0.00390625 0.75 -0.046875 C 0.632812 -0.0859375 0.539062 -0.144531 0.46875 -0.21875 C 0.394531 -0.289062 0.34375 -0.378906 0.3125 -0.484375 C 0.28125 -0.585938 0.265625 -0.707031 0.265625 -0.84375 C 0.265625 -1.007812 0.289062 -1.144531 0.34375 -1.25 C 0.394531 -1.363281 0.46875 -1.453125 0.5625 -1.515625 C 0.65625 -1.585938 0.765625 -1.632812 0.890625 -1.65625 C 1.015625 -1.6875 1.148438 -1.703125 1.296875 -1.703125 C 1.597656 -1.703125 1.820312 -1.644531 1.96875 -1.53125 C 2.125 -1.414062 2.203125 -1.253906 2.203125 -1.046875 C 2.203125 -1.023438 2.203125 -1 2.203125 -0.96875 C 2.203125 -0.945312 2.195312 -0.925781 2.1875 -0.90625 C 2.1875 -0.882812 2.179688 -0.863281 2.171875 -0.84375 C 2.160156 -0.832031 2.15625 -0.828125 2.15625 -0.828125 L 1.515625 -0.828125 L 0.4375 -0.84375 C 0.4375 -0.707031 0.453125 -0.59375 0.484375 -0.5 C 0.523438 -0.40625 0.578125 -0.328125 0.640625 -0.265625 C 0.703125 -0.210938 0.773438 -0.171875 0.859375 -0.140625 C 0.953125 -0.117188 1.0625 -0.109375 1.1875 -0.109375 Z M 1.1875 -0.109375 "/></g></g></g><g fill="#4d433a" fill-opacity="1"><g transform="translate(504.773608, 296.895302)"><g><path d="M 1.296875 -1.640625 C 1.316406 -1.640625 1.332031 -1.628906 1.34375 -1.609375 C 1.351562 -1.597656 1.359375 -1.585938 1.359375 -1.578125 C 1.359375 -1.566406 1.351562 -1.554688 1.34375 -1.546875 C 1.332031 -1.535156 1.316406 -1.53125 1.296875 -1.53125 L 0.578125 -1.53125 L 0.578125 -0.609375 C 0.578125 -0.503906 0.585938 -0.414062 0.609375 -0.34375 C 0.628906 -0.28125 0.65625 -0.226562 0.6875 -0.1875 C 0.726562 -0.15625 0.773438 -0.132812 0.828125 -0.125 C 0.878906 -0.113281 0.929688 -0.109375 0.984375 -0.109375 C 1.054688 -0.109375 1.125 -0.117188 1.1875 -0.140625 C 1.257812 -0.171875 1.335938 -0.207031 1.421875 -0.25 C 1.441406 -0.257812 1.457031 -0.265625 1.46875 -0.265625 C 1.488281 -0.265625 1.503906 -0.257812 1.515625 -0.25 C 1.523438 -0.238281 1.53125 -0.222656 1.53125 -0.203125 C 1.53125 -0.171875 1.515625 -0.148438 1.484375 -0.140625 C 1.421875 -0.109375 1.363281 -0.0820312 1.3125 -0.0625 C 1.269531 -0.0390625 1.226562 -0.0195312 1.1875 0 C 1.15625 0.0078125 1.117188 0.015625 1.078125 0.015625 C 1.035156 0.015625 0.992188 0.015625 0.953125 0.015625 C 0.878906 0.015625 0.804688 0.00390625 0.734375 -0.015625 C 0.671875 -0.0351562 0.613281 -0.0664062 0.5625 -0.109375 C 0.507812 -0.160156 0.46875 -0.226562 0.4375 -0.3125 C 0.414062 -0.394531 0.40625 -0.492188 0.40625 -0.609375 L 0.40625 -1.53125 L 0.203125 -1.53125 C 0.191406 -1.53125 0.179688 -1.535156 0.171875 -1.546875 C 0.160156 -1.554688 0.15625 -1.566406 0.15625 -1.578125 C 0.15625 -1.585938 0.160156 -1.597656 0.171875 -1.609375 C 0.179688 -1.628906 0.191406 -1.640625 0.203125 -1.640625 L 0.40625 -1.640625 L 0.40625 -2.171875 C 0.40625 -2.222656 0.410156 -2.253906 0.421875 -2.265625 C 0.441406 -2.273438 0.460938 -2.28125 0.484375 -2.28125 C 0.515625 -2.28125 0.535156 -2.273438 0.546875 -2.265625 C 0.566406 -2.253906 0.578125 -2.222656 0.578125 -2.171875 L 0.578125 -1.640625 Z M 1.296875 -1.640625 "/></g></g></g><g fill="#4d433a" fill-opacity="1"><g transform="translate(506.327315, 296.895302)"><g><path d="M 1.296875 -1.640625 C 1.316406 -1.640625 1.332031 -1.628906 1.34375 -1.609375 C 1.351562 -1.597656 1.359375 -1.585938 1.359375 -1.578125 C 1.359375 -1.566406 1.351562 -1.554688 1.34375 -1.546875 C 1.332031 -1.535156 1.316406 -1.53125 1.296875 -1.53125 L 0.578125 -1.53125 L 0.578125 -0.609375 C 0.578125 -0.503906 0.585938 -0.414062 0.609375 -0.34375 C 0.628906 -0.28125 0.65625 -0.226562 0.6875 -0.1875 C 0.726562 -0.15625 0.773438 -0.132812 0.828125 -0.125 C 0.878906 -0.113281 0.929688 -0.109375 0.984375 -0.109375 C 1.054688 -0.109375 1.125 -0.117188 1.1875 -0.140625 C 1.257812 -0.171875 1.335938 -0.207031 1.421875 -0.25 C 1.441406 -0.257812 1.457031 -0.265625 1.46875 -0.265625 C 1.488281 -0.265625 1.503906 -0.257812 1.515625 -0.25 C 1.523438 -0.238281 1.53125 -0.222656 1.53125 -0.203125 C 1.53125 -0.171875 1.515625 -0.148438 1.484375 -0.140625 C 1.421875 -0.109375 1.363281 -0.0820312 1.3125 -0.0625 C 1.269531 -0.0390625 1.226562 -0.0195312 1.1875 0 C 1.15625 0.0078125 1.117188 0.015625 1.078125 0.015625 C 1.035156 0.015625 0.992188 0.015625 0.953125 0.015625 C 0.878906 0.015625 0.804688 0.00390625 0.734375 -0.015625 C 0.671875 -0.0351562 0.613281 -0.0664062 0.5625 -0.109375 C 0.507812 -0.160156 0.46875 -0.226562 0.4375 -0.3125 C 0.414062 -0.394531 0.40625 -0.492188 0.40625 -0.609375 L 0.40625 -1.53125 L 0.203125 -1.53125 C 0.191406 -1.53125 0.179688 -1.535156 0.171875 -1.546875 C 0.160156 -1.554688 0.15625 -1.566406 0.15625 -1.578125 C 0.15625 -1.585938 0.160156 -1.597656 0.171875 -1.609375 C 0.179688 -1.628906 0.191406 -1.640625 0.203125 -1.640625 L 0.40625 -1.640625 L 0.40625 -2.171875 C 0.40625 -2.222656 0.410156 -2.253906 0.421875 -2.265625 C 0.441406 -2.273438 0.460938 -2.28125 0.484375 -2.28125 C 0.515625 -2.28125 0.535156 -2.273438 0.546875 -2.265625 C 0.566406 -2.253906 0.578125 -2.222656 0.578125 -2.171875 L 0.578125 -1.640625 Z M 1.296875 -1.640625 "/></g></g></g><g fill="#4d433a" fill-opacity="1"><g transform="translate(507.881023, 296.895302)"><g><path d="M 1.296875 -1.578125 C 1.171875 -1.578125 1.054688 -1.566406 0.953125 -1.546875 C 0.847656 -1.523438 0.753906 -1.488281 0.671875 -1.4375 C 0.597656 -1.382812 0.539062 -1.316406 0.5 -1.234375 C 0.46875 -1.148438 0.445312 -1.050781 0.4375 -0.9375 L 2.078125 -0.9375 L 2.078125 -1.046875 C 2.078125 -1.117188 2.0625 -1.1875 2.03125 -1.25 C 2.007812 -1.320312 1.96875 -1.378906 1.90625 -1.421875 C 1.84375 -1.472656 1.757812 -1.507812 1.65625 -1.53125 C 1.5625 -1.5625 1.441406 -1.578125 1.296875 -1.578125 Z M 1.1875 -0.109375 C 1.320312 -0.109375 1.441406 -0.113281 1.546875 -0.125 C 1.648438 -0.144531 1.738281 -0.164062 1.8125 -0.1875 C 1.882812 -0.21875 1.941406 -0.242188 1.984375 -0.265625 C 2.035156 -0.296875 2.078125 -0.320312 2.109375 -0.34375 C 2.117188 -0.34375 2.125 -0.34375 2.125 -0.34375 C 2.144531 -0.34375 2.160156 -0.332031 2.171875 -0.3125 C 2.179688 -0.300781 2.1875 -0.285156 2.1875 -0.265625 C 2.1875 -0.253906 2.179688 -0.242188 2.171875 -0.234375 C 2.160156 -0.210938 2.128906 -0.1875 2.078125 -0.15625 C 2.035156 -0.132812 1.972656 -0.109375 1.890625 -0.078125 C 1.816406 -0.0546875 1.722656 -0.0351562 1.609375 -0.015625 C 1.492188 0.00390625 1.351562 0.015625 1.1875 0.015625 C 1.019531 0.015625 0.875 -0.00390625 0.75 -0.046875 C 0.632812 -0.0859375 0.539062 -0.144531 0.46875 -0.21875 C 0.394531 -0.289062 0.34375 -0.378906 0.3125 -0.484375 C 0.28125 -0.585938 0.265625 -0.707031 0.265625 -0.84375 C 0.265625 -1.007812 0.289062 -1.144531 0.34375 -1.25 C 0.394531 -1.363281 0.46875 -1.453125 0.5625 -1.515625 C 0.65625 -1.585938 0.765625 -1.632812 0.890625 -1.65625 C 1.015625 -1.6875 1.148438 -1.703125 1.296875 -1.703125 C 1.597656 -1.703125 1.820312 -1.644531 1.96875 -1.53125 C 2.125 -1.414062 2.203125 -1.253906 2.203125 -1.046875 C 2.203125 -1.023438 2.203125 -1 2.203125 -0.96875 C 2.203125 -0.945312 2.195312 -0.925781 2.1875 -0.90625 C 2.1875 -0.882812 2.179688 -0.863281 2.171875 -0.84375 C 2.160156 -0.832031 2.15625 -0.828125 2.15625 -0.828125 L 1.515625 -0.828125 L 0.4375 -0.84375 C 0.4375 -0.707031 0.453125 -0.59375 0.484375 -0.5 C 0.523438 -0.40625 0.578125 -0.328125 0.640625 -0.265625 C 0.703125 -0.210938 0.773438 -0.171875 0.859375 -0.140625 C 0.953125 -0.117188 1.0625 -0.109375 1.1875 -0.109375 Z M 1.1875 -0.109375 "/></g></g></g><g fill="#4d433a" fill-opacity="1"><g transform="translate(510.339971, 296.895302)"><g><path d="M 1.625 -1.65625 C 1.644531 -1.65625 1.65625 -1.644531 1.65625 -1.625 C 1.664062 -1.613281 1.671875 -1.601562 1.671875 -1.59375 C 1.671875 -1.570312 1.664062 -1.550781 1.65625 -1.53125 C 1.644531 -1.519531 1.625 -1.515625 1.59375 -1.515625 C 1.59375 -1.515625 1.585938 -1.515625 1.578125 -1.515625 C 1.515625 -1.535156 1.457031 -1.546875 1.40625 -1.546875 C 1.351562 -1.554688 1.296875 -1.5625 1.234375 -1.5625 C 1.148438 -1.5625 1.066406 -1.550781 0.984375 -1.53125 C 0.910156 -1.519531 0.84375 -1.5 0.78125 -1.46875 C 0.71875 -1.4375 0.660156 -1.394531 0.609375 -1.34375 C 0.566406 -1.289062 0.535156 -1.226562 0.515625 -1.15625 L 0.515625 -0.15625 C 0.515625 -0.113281 0.507812 -0.078125 0.5 -0.046875 C 0.488281 -0.015625 0.46875 0 0.4375 0 C 0.414062 0 0.394531 -0.00390625 0.375 -0.015625 C 0.363281 -0.0234375 0.351562 -0.0351562 0.34375 -0.046875 C 0.34375 -0.0546875 0.34375 -0.0703125 0.34375 -0.09375 C 0.34375 -0.113281 0.34375 -0.132812 0.34375 -0.15625 L 0.34375 -1.546875 C 0.34375 -1.578125 0.347656 -1.601562 0.359375 -1.625 C 0.367188 -1.65625 0.394531 -1.671875 0.4375 -1.671875 C 0.46875 -1.671875 0.488281 -1.65625 0.5 -1.625 C 0.507812 -1.601562 0.515625 -1.578125 0.515625 -1.546875 L 0.515625 -1.296875 C 0.535156 -1.378906 0.570312 -1.445312 0.625 -1.5 C 0.6875 -1.5625 0.753906 -1.601562 0.828125 -1.625 C 0.898438 -1.65625 0.972656 -1.675781 1.046875 -1.6875 C 1.117188 -1.695312 1.179688 -1.703125 1.234375 -1.703125 C 1.296875 -1.703125 1.34375 -1.703125 1.375 -1.703125 C 1.414062 -1.703125 1.453125 -1.695312 1.484375 -1.6875 C 1.515625 -1.6875 1.539062 -1.679688 1.5625 -1.671875 C 1.582031 -1.671875 1.601562 -1.664062 1.625 -1.65625 Z M 1.625 -1.65625 "/></g></g></g><g fill="#4d433a" fill-opacity="1"><g transform="translate(512.100407, 296.895302)"><g/></g></g><g fill="#4d433a" fill-opacity="1"><g transform="translate(513.101395, 296.895302)"><g><path d="M 0.53125 -0.15625 C 0.53125 -0.113281 0.523438 -0.078125 0.515625 -0.046875 C 0.503906 -0.015625 0.484375 0 0.453125 0 C 0.398438 0 0.367188 -0.015625 0.359375 -0.046875 C 0.347656 -0.078125 0.34375 -0.109375 0.34375 -0.140625 L 0.34375 -2.34375 C 0.34375 -2.363281 0.34375 -2.378906 0.34375 -2.390625 C 0.351562 -2.398438 0.359375 -2.40625 0.359375 -2.40625 C 0.359375 -2.414062 0.363281 -2.421875 0.375 -2.421875 C 0.382812 -2.421875 0.40625 -2.421875 0.4375 -2.421875 L 2.5625 -2.421875 C 2.570312 -2.421875 2.585938 -2.421875 2.609375 -2.421875 C 2.628906 -2.421875 2.644531 -2.414062 2.65625 -2.40625 C 2.664062 -2.40625 2.671875 -2.398438 2.671875 -2.390625 C 2.679688 -2.378906 2.6875 -2.363281 2.6875 -2.34375 C 2.6875 -2.3125 2.675781 -2.289062 2.65625 -2.28125 C 2.632812 -2.28125 2.601562 -2.28125 2.5625 -2.28125 L 0.53125 -2.28125 L 0.53125 -1.296875 L 2.25 -1.296875 C 2.289062 -1.296875 2.320312 -1.289062 2.34375 -1.28125 C 2.375 -1.28125 2.390625 -1.257812 2.390625 -1.21875 C 2.390625 -1.207031 2.382812 -1.195312 2.375 -1.1875 C 2.363281 -1.175781 2.351562 -1.164062 2.34375 -1.15625 C 2.332031 -1.15625 2.316406 -1.148438 2.296875 -1.140625 C 2.285156 -1.140625 2.269531 -1.140625 2.25 -1.140625 L 0.53125 -1.140625 Z M 0.53125 -0.15625 "/></g></g></g><g fill="#4d433a" fill-opacity="1"><g transform="translate(515.797536, 296.895302)"><g><path d="M 1.34375 0.015625 C 1.144531 0.015625 0.976562 0 0.84375 -0.03125 C 0.707031 -0.0703125 0.59375 -0.128906 0.5 -0.203125 C 0.414062 -0.273438 0.351562 -0.363281 0.3125 -0.46875 C 0.28125 -0.582031 0.265625 -0.707031 0.265625 -0.84375 C 0.265625 -0.988281 0.285156 -1.113281 0.328125 -1.21875 C 0.367188 -1.332031 0.429688 -1.425781 0.515625 -1.5 C 0.609375 -1.570312 0.722656 -1.625 0.859375 -1.65625 C 0.992188 -1.6875 1.15625 -1.703125 1.34375 -1.703125 C 1.53125 -1.703125 1.691406 -1.6875 1.828125 -1.65625 C 1.960938 -1.625 2.070312 -1.570312 2.15625 -1.5 C 2.25 -1.425781 2.316406 -1.332031 2.359375 -1.21875 C 2.398438 -1.113281 2.421875 -0.988281 2.421875 -0.84375 C 2.421875 -0.707031 2.398438 -0.582031 2.359375 -0.46875 C 2.328125 -0.363281 2.269531 -0.273438 2.1875 -0.203125 C 2.101562 -0.128906 1.988281 -0.0703125 1.84375 -0.03125 C 1.707031 0 1.539062 0.015625 1.34375 0.015625 Z M 1.34375 -0.109375 C 1.476562 -0.109375 1.59375 -0.117188 1.6875 -0.140625 C 1.78125 -0.160156 1.859375 -0.1875 1.921875 -0.21875 C 1.992188 -0.25 2.050781 -0.285156 2.09375 -0.328125 C 2.132812 -0.378906 2.164062 -0.429688 2.1875 -0.484375 C 2.21875 -0.546875 2.234375 -0.601562 2.234375 -0.65625 C 2.242188 -0.71875 2.25 -0.78125 2.25 -0.84375 C 2.25 -0.976562 2.234375 -1.09375 2.203125 -1.1875 C 2.171875 -1.28125 2.113281 -1.351562 2.03125 -1.40625 C 1.957031 -1.46875 1.863281 -1.507812 1.75 -1.53125 C 1.632812 -1.5625 1.5 -1.578125 1.34375 -1.578125 C 1.1875 -1.578125 1.050781 -1.5625 0.9375 -1.53125 C 0.820312 -1.507812 0.726562 -1.46875 0.65625 -1.40625 C 0.582031 -1.351562 0.523438 -1.28125 0.484375 -1.1875 C 0.453125 -1.09375 0.4375 -0.976562 0.4375 -0.84375 C 0.4375 -0.78125 0.441406 -0.71875 0.453125 -0.65625 C 0.460938 -0.601562 0.476562 -0.546875 0.5 -0.484375 C 0.519531 -0.429688 0.550781 -0.378906 0.59375 -0.328125 C 0.632812 -0.285156 0.6875 -0.25 0.75 -0.21875 C 0.820312 -0.1875 0.90625 -0.160156 1 -0.140625 C 1.101562 -0.117188 1.21875 -0.109375 1.34375 -0.109375 Z M 1.34375 -0.109375 "/></g></g></g><g fill="#4d433a" fill-opacity="1"><g transform="translate(518.495851, 296.895302)"><g><path d="M 1.34375 0.015625 C 1.144531 0.015625 0.976562 0 0.84375 -0.03125 C 0.707031 -0.0703125 0.59375 -0.128906 0.5 -0.203125 C 0.414062 -0.273438 0.351562 -0.363281 0.3125 -0.46875 C 0.28125 -0.582031 0.265625 -0.707031 0.265625 -0.84375 C 0.265625 -0.988281 0.285156 -1.113281 0.328125 -1.21875 C 0.367188 -1.332031 0.429688 -1.425781 0.515625 -1.5 C 0.609375 -1.570312 0.722656 -1.625 0.859375 -1.65625 C 0.992188 -1.6875 1.15625 -1.703125 1.34375 -1.703125 C 1.53125 -1.703125 1.691406 -1.6875 1.828125 -1.65625 C 1.960938 -1.625 2.070312 -1.570312 2.15625 -1.5 C 2.25 -1.425781 2.316406 -1.332031 2.359375 -1.21875 C 2.398438 -1.113281 2.421875 -0.988281 2.421875 -0.84375 C 2.421875 -0.707031 2.398438 -0.582031 2.359375 -0.46875 C 2.328125 -0.363281 2.269531 -0.273438 2.1875 -0.203125 C 2.101562 -0.128906 1.988281 -0.0703125 1.84375 -0.03125 C 1.707031 0 1.539062 0.015625 1.34375 0.015625 Z M 1.34375 -0.109375 C 1.476562 -0.109375 1.59375 -0.117188 1.6875 -0.140625 C 1.78125 -0.160156 1.859375 -0.1875 1.921875 -0.21875 C 1.992188 -0.25 2.050781 -0.285156 2.09375 -0.328125 C 2.132812 -0.378906 2.164062 -0.429688 2.1875 -0.484375 C 2.21875 -0.546875 2.234375 -0.601562 2.234375 -0.65625 C 2.242188 -0.71875 2.25 -0.78125 2.25 -0.84375 C 2.25 -0.976562 2.234375 -1.09375 2.203125 -1.1875 C 2.171875 -1.28125 2.113281 -1.351562 2.03125 -1.40625 C 1.957031 -1.46875 1.863281 -1.507812 1.75 -1.53125 C 1.632812 -1.5625 1.5 -1.578125 1.34375 -1.578125 C 1.1875 -1.578125 1.050781 -1.5625 0.9375 -1.53125 C 0.820312 -1.507812 0.726562 -1.46875 0.65625 -1.40625 C 0.582031 -1.351562 0.523438 -1.28125 0.484375 -1.1875 C 0.453125 -1.09375 0.4375 -0.976562 0.4375 -0.84375 C 0.4375 -0.78125 0.441406 -0.71875 0.453125 -0.65625 C 0.460938 -0.601562 0.476562 -0.546875 0.5 -0.484375 C 0.519531 -0.429688 0.550781 -0.378906 0.59375 -0.328125 C 0.632812 -0.285156 0.6875 -0.25 0.75 -0.21875 C 0.820312 -0.1875 0.90625 -0.160156 1 -0.140625 C 1.101562 -0.117188 1.21875 -0.109375 1.34375 -0.109375 Z M 1.34375 -0.109375 "/></g></g></g><g fill="#4d433a" fill-opacity="1"><g transform="translate(521.194166, 296.895302)"><g><path d="M 1.234375 0.015625 C 1.097656 0.015625 0.972656 0.00390625 0.859375 -0.015625 C 0.742188 -0.046875 0.640625 -0.09375 0.546875 -0.15625 C 0.460938 -0.21875 0.394531 -0.300781 0.34375 -0.40625 C 0.289062 -0.519531 0.265625 -0.660156 0.265625 -0.828125 C 0.265625 -0.984375 0.285156 -1.117188 0.328125 -1.234375 C 0.367188 -1.347656 0.429688 -1.4375 0.515625 -1.5 C 0.597656 -1.570312 0.695312 -1.625 0.8125 -1.65625 C 0.9375 -1.6875 1.078125 -1.703125 1.234375 -1.703125 C 1.390625 -1.703125 1.519531 -1.691406 1.625 -1.671875 C 1.738281 -1.660156 1.832031 -1.640625 1.90625 -1.609375 C 1.976562 -1.585938 2.039062 -1.554688 2.09375 -1.515625 C 2.144531 -1.484375 2.179688 -1.457031 2.203125 -1.4375 L 2.203125 -2.265625 C 2.203125 -2.285156 2.203125 -2.304688 2.203125 -2.328125 C 2.210938 -2.347656 2.21875 -2.363281 2.21875 -2.375 C 2.226562 -2.382812 2.238281 -2.394531 2.25 -2.40625 C 2.257812 -2.414062 2.273438 -2.421875 2.296875 -2.421875 C 2.316406 -2.421875 2.332031 -2.414062 2.34375 -2.40625 C 2.351562 -2.394531 2.359375 -2.382812 2.359375 -2.375 C 2.367188 -2.363281 2.375 -2.347656 2.375 -2.328125 C 2.382812 -2.316406 2.390625 -2.296875 2.390625 -2.265625 L 2.390625 -0.125 C 2.390625 -0.0703125 2.378906 -0.0351562 2.359375 -0.015625 C 2.335938 -0.00390625 2.316406 0 2.296875 0 C 2.273438 0 2.253906 -0.00390625 2.234375 -0.015625 C 2.210938 -0.0351562 2.203125 -0.0664062 2.203125 -0.109375 L 2.203125 -0.421875 C 2.191406 -0.359375 2.164062 -0.300781 2.125 -0.25 C 2.082031 -0.207031 2.03125 -0.171875 1.96875 -0.140625 C 1.914062 -0.109375 1.859375 -0.0820312 1.796875 -0.0625 C 1.734375 -0.0390625 1.664062 -0.0195312 1.59375 0 C 1.53125 0.0078125 1.460938 0.015625 1.390625 0.015625 C 1.328125 0.015625 1.273438 0.015625 1.234375 0.015625 Z M 1.234375 -0.109375 C 1.316406 -0.109375 1.410156 -0.113281 1.515625 -0.125 C 1.617188 -0.132812 1.71875 -0.15625 1.8125 -0.1875 C 1.90625 -0.21875 1.988281 -0.257812 2.0625 -0.3125 C 2.132812 -0.375 2.179688 -0.453125 2.203125 -0.546875 L 2.203125 -1.328125 C 2.171875 -1.359375 2.128906 -1.382812 2.078125 -1.40625 C 2.023438 -1.4375 1.957031 -1.460938 1.875 -1.484375 C 1.800781 -1.515625 1.710938 -1.535156 1.609375 -1.546875 C 1.503906 -1.566406 1.378906 -1.578125 1.234375 -1.578125 C 1.085938 -1.578125 0.960938 -1.5625 0.859375 -1.53125 C 0.765625 -1.507812 0.6875 -1.46875 0.625 -1.40625 C 0.5625 -1.34375 0.515625 -1.265625 0.484375 -1.171875 C 0.453125 -1.078125 0.4375 -0.960938 0.4375 -0.828125 C 0.4375 -0.691406 0.457031 -0.578125 0.5 -0.484375 C 0.539062 -0.390625 0.597656 -0.3125 0.671875 -0.25 C 0.742188 -0.195312 0.828125 -0.160156 0.921875 -0.140625 C 1.015625 -0.117188 1.117188 -0.109375 1.234375 -0.109375 Z M 1.234375 -0.109375 "/></g></g></g><g fill="#4d433a" fill-opacity="1"><g transform="translate(523.925125, 296.895302)"><g><path d="M 0.1875 0.1875 C 0.238281 0.1875 0.273438 0.171875 0.296875 0.140625 C 0.316406 0.117188 0.328125 0.0859375 0.328125 0.046875 C 0.296875 0.0351562 0.269531 0.0195312 0.25 0 C 0.226562 -0.0195312 0.21875 -0.0507812 0.21875 -0.09375 C 0.21875 -0.132812 0.226562 -0.164062 0.25 -0.1875 C 0.28125 -0.21875 0.320312 -0.234375 0.375 -0.234375 C 0.382812 -0.234375 0.398438 -0.226562 0.421875 -0.21875 C 0.441406 -0.207031 0.457031 -0.195312 0.46875 -0.1875 C 0.476562 -0.175781 0.488281 -0.160156 0.5 -0.140625 C 0.507812 -0.117188 0.515625 -0.09375 0.515625 -0.0625 C 0.515625 -0.03125 0.503906 0.00390625 0.484375 0.046875 C 0.472656 0.0859375 0.453125 0.125 0.421875 0.15625 C 0.398438 0.1875 0.367188 0.210938 0.328125 0.234375 C 0.285156 0.253906 0.238281 0.265625 0.1875 0.265625 Z M 0.1875 0.1875 "/></g></g></g><g fill="#4d433a" fill-opacity="1"><g transform="translate(524.627995, 296.895302)"><g/></g></g><g fill="#4d433a" fill-opacity="1"><g transform="translate(525.628983, 296.895302)"><g><path d="M 2.78125 -0.703125 C 2.78125 -0.554688 2.75 -0.4375 2.6875 -0.34375 C 2.632812 -0.25 2.554688 -0.175781 2.453125 -0.125 C 2.359375 -0.0820312 2.242188 -0.0507812 2.109375 -0.03125 C 1.972656 -0.0078125 1.828125 0 1.671875 0 L 0.421875 0 C 0.398438 0 0.378906 -0.00390625 0.359375 -0.015625 C 0.347656 -0.0351562 0.34375 -0.0546875 0.34375 -0.078125 L 0.34375 -2.34375 C 0.34375 -2.363281 0.347656 -2.378906 0.359375 -2.390625 C 0.378906 -2.410156 0.40625 -2.421875 0.4375 -2.421875 L 1.421875 -2.421875 C 1.523438 -2.421875 1.628906 -2.421875 1.734375 -2.421875 C 1.835938 -2.421875 1.929688 -2.410156 2.015625 -2.390625 C 2.109375 -2.378906 2.191406 -2.363281 2.265625 -2.34375 C 2.347656 -2.320312 2.414062 -2.285156 2.46875 -2.234375 C 2.53125 -2.191406 2.578125 -2.132812 2.609375 -2.0625 C 2.640625 -2 2.65625 -1.914062 2.65625 -1.8125 C 2.65625 -1.726562 2.640625 -1.65625 2.609375 -1.59375 C 2.585938 -1.539062 2.554688 -1.492188 2.515625 -1.453125 C 2.484375 -1.421875 2.445312 -1.390625 2.40625 -1.359375 C 2.363281 -1.335938 2.320312 -1.320312 2.28125 -1.3125 C 2.238281 -1.300781 2.203125 -1.296875 2.171875 -1.296875 C 2.140625 -1.296875 2.113281 -1.296875 2.09375 -1.296875 L 2.078125 -1.296875 C 2.171875 -1.285156 2.257812 -1.269531 2.34375 -1.25 C 2.425781 -1.226562 2.5 -1.191406 2.5625 -1.140625 C 2.625 -1.097656 2.675781 -1.039062 2.71875 -0.96875 C 2.757812 -0.90625 2.78125 -0.816406 2.78125 -0.703125 Z M 2.46875 -1.8125 C 2.46875 -1.882812 2.453125 -1.945312 2.421875 -2 C 2.398438 -2.0625 2.351562 -2.113281 2.28125 -2.15625 C 2.21875 -2.195312 2.125 -2.226562 2 -2.25 C 1.875 -2.269531 1.710938 -2.28125 1.515625 -2.28125 L 0.53125 -2.28125 L 0.53125 -1.34375 L 1.5625 -1.34375 C 1.71875 -1.34375 1.851562 -1.347656 1.96875 -1.359375 C 2.082031 -1.378906 2.175781 -1.40625 2.25 -1.4375 C 2.320312 -1.46875 2.375 -1.515625 2.40625 -1.578125 C 2.445312 -1.640625 2.46875 -1.71875 2.46875 -1.8125 Z M 2.59375 -0.703125 C 2.59375 -0.804688 2.566406 -0.890625 2.515625 -0.953125 C 2.472656 -1.023438 2.40625 -1.078125 2.3125 -1.109375 C 2.226562 -1.148438 2.117188 -1.175781 1.984375 -1.1875 C 1.859375 -1.207031 1.71875 -1.21875 1.5625 -1.21875 L 0.53125 -1.21875 L 0.53125 -0.140625 L 1.75 -0.140625 C 1.945312 -0.140625 2.101562 -0.15625 2.21875 -0.1875 C 2.332031 -0.21875 2.414062 -0.257812 2.46875 -0.3125 C 2.519531 -0.363281 2.550781 -0.421875 2.5625 -0.484375 C 2.582031 -0.554688 2.59375 -0.628906 2.59375 -0.703125 Z M 2.59375 -0.703125 "/></g></g></g><g fill="#4d433a" fill-opacity="1"><g transform="translate(528.692876, 296.895302)"><g><path d="M 1.296875 -1.578125 C 1.171875 -1.578125 1.054688 -1.566406 0.953125 -1.546875 C 0.847656 -1.523438 0.753906 -1.488281 0.671875 -1.4375 C 0.597656 -1.382812 0.539062 -1.316406 0.5 -1.234375 C 0.46875 -1.148438 0.445312 -1.050781 0.4375 -0.9375 L 2.078125 -0.9375 L 2.078125 -1.046875 C 2.078125 -1.117188 2.0625 -1.1875 2.03125 -1.25 C 2.007812 -1.320312 1.96875 -1.378906 1.90625 -1.421875 C 1.84375 -1.472656 1.757812 -1.507812 1.65625 -1.53125 C 1.5625 -1.5625 1.441406 -1.578125 1.296875 -1.578125 Z M 1.1875 -0.109375 C 1.320312 -0.109375 1.441406 -0.113281 1.546875 -0.125 C 1.648438 -0.144531 1.738281 -0.164062 1.8125 -0.1875 C 1.882812 -0.21875 1.941406 -0.242188 1.984375 -0.265625 C 2.035156 -0.296875 2.078125 -0.320312 2.109375 -0.34375 C 2.117188 -0.34375 2.125 -0.34375 2.125 -0.34375 C 2.144531 -0.34375 2.160156 -0.332031 2.171875 -0.3125 C 2.179688 -0.300781 2.1875 -0.285156 2.1875 -0.265625 C 2.1875 -0.253906 2.179688 -0.242188 2.171875 -0.234375 C 2.160156 -0.210938 2.128906 -0.1875 2.078125 -0.15625 C 2.035156 -0.132812 1.972656 -0.109375 1.890625 -0.078125 C 1.816406 -0.0546875 1.722656 -0.0351562 1.609375 -0.015625 C 1.492188 0.00390625 1.351562 0.015625 1.1875 0.015625 C 1.019531 0.015625 0.875 -0.00390625 0.75 -0.046875 C 0.632812 -0.0859375 0.539062 -0.144531 0.46875 -0.21875 C 0.394531 -0.289062 0.34375 -0.378906 0.3125 -0.484375 C 0.28125 -0.585938 0.265625 -0.707031 0.265625 -0.84375 C 0.265625 -1.007812 0.289062 -1.144531 0.34375 -1.25 C 0.394531 -1.363281 0.46875 -1.453125 0.5625 -1.515625 C 0.65625 -1.585938 0.765625 -1.632812 0.890625 -1.65625 C 1.015625 -1.6875 1.148438 -1.703125 1.296875 -1.703125 C 1.597656 -1.703125 1.820312 -1.644531 1.96875 -1.53125 C 2.125 -1.414062 2.203125 -1.253906 2.203125 -1.046875 C 2.203125 -1.023438 2.203125 -1 2.203125 -0.96875 C 2.203125 -0.945312 2.195312 -0.925781 2.1875 -0.90625 C 2.1875 -0.882812 2.179688 -0.863281 2.171875 -0.84375 C 2.160156 -0.832031 2.15625 -0.828125 2.15625 -0.828125 L 1.515625 -0.828125 L 0.4375 -0.84375 C 0.4375 -0.707031 0.453125 -0.59375 0.484375 -0.5 C 0.523438 -0.40625 0.578125 -0.328125 0.640625 -0.265625 C 0.703125 -0.210938 0.773438 -0.171875 0.859375 -0.140625 C 0.953125 -0.117188 1.0625 -0.109375 1.1875 -0.109375 Z M 1.1875 -0.109375 "/></g></g></g><g fill="#4d433a" fill-opacity="1"><g transform="translate(531.151825, 296.895302)"><g><path d="M 1.296875 -1.640625 C 1.316406 -1.640625 1.332031 -1.628906 1.34375 -1.609375 C 1.351562 -1.597656 1.359375 -1.585938 1.359375 -1.578125 C 1.359375 -1.566406 1.351562 -1.554688 1.34375 -1.546875 C 1.332031 -1.535156 1.316406 -1.53125 1.296875 -1.53125 L 0.578125 -1.53125 L 0.578125 -0.609375 C 0.578125 -0.503906 0.585938 -0.414062 0.609375 -0.34375 C 0.628906 -0.28125 0.65625 -0.226562 0.6875 -0.1875 C 0.726562 -0.15625 0.773438 -0.132812 0.828125 -0.125 C 0.878906 -0.113281 0.929688 -0.109375 0.984375 -0.109375 C 1.054688 -0.109375 1.125 -0.117188 1.1875 -0.140625 C 1.257812 -0.171875 1.335938 -0.207031 1.421875 -0.25 C 1.441406 -0.257812 1.457031 -0.265625 1.46875 -0.265625 C 1.488281 -0.265625 1.503906 -0.257812 1.515625 -0.25 C 1.523438 -0.238281 1.53125 -0.222656 1.53125 -0.203125 C 1.53125 -0.171875 1.515625 -0.148438 1.484375 -0.140625 C 1.421875 -0.109375 1.363281 -0.0820312 1.3125 -0.0625 C 1.269531 -0.0390625 1.226562 -0.0195312 1.1875 0 C 1.15625 0.0078125 1.117188 0.015625 1.078125 0.015625 C 1.035156 0.015625 0.992188 0.015625 0.953125 0.015625 C 0.878906 0.015625 0.804688 0.00390625 0.734375 -0.015625 C 0.671875 -0.0351562 0.613281 -0.0664062 0.5625 -0.109375 C 0.507812 -0.160156 0.46875 -0.226562 0.4375 -0.3125 C 0.414062 -0.394531 0.40625 -0.492188 0.40625 -0.609375 L 0.40625 -1.53125 L 0.203125 -1.53125 C 0.191406 -1.53125 0.179688 -1.535156 0.171875 -1.546875 C 0.160156 -1.554688 0.15625 -1.566406 0.15625 -1.578125 C 0.15625 -1.585938 0.160156 -1.597656 0.171875 -1.609375 C 0.179688 -1.628906 0.191406 -1.640625 0.203125 -1.640625 L 0.40625 -1.640625 L 0.40625 -2.171875 C 0.40625 -2.222656 0.410156 -2.253906 0.421875 -2.265625 C 0.441406 -2.273438 0.460938 -2.28125 0.484375 -2.28125 C 0.515625 -2.28125 0.535156 -2.273438 0.546875 -2.265625 C 0.566406 -2.253906 0.578125 -2.222656 0.578125 -2.171875 L 0.578125 -1.640625 Z M 1.296875 -1.640625 "/></g></g></g><g fill="#4d433a" fill-opacity="1"><g transform="translate(532.705532, 296.895302)"><g><path d="M 1.296875 -1.640625 C 1.316406 -1.640625 1.332031 -1.628906 1.34375 -1.609375 C 1.351562 -1.597656 1.359375 -1.585938 1.359375 -1.578125 C 1.359375 -1.566406 1.351562 -1.554688 1.34375 -1.546875 C 1.332031 -1.535156 1.316406 -1.53125 1.296875 -1.53125 L 0.578125 -1.53125 L 0.578125 -0.609375 C 0.578125 -0.503906 0.585938 -0.414062 0.609375 -0.34375 C 0.628906 -0.28125 0.65625 -0.226562 0.6875 -0.1875 C 0.726562 -0.15625 0.773438 -0.132812 0.828125 -0.125 C 0.878906 -0.113281 0.929688 -0.109375 0.984375 -0.109375 C 1.054688 -0.109375 1.125 -0.117188 1.1875 -0.140625 C 1.257812 -0.171875 1.335938 -0.207031 1.421875 -0.25 C 1.441406 -0.257812 1.457031 -0.265625 1.46875 -0.265625 C 1.488281 -0.265625 1.503906 -0.257812 1.515625 -0.25 C 1.523438 -0.238281 1.53125 -0.222656 1.53125 -0.203125 C 1.53125 -0.171875 1.515625 -0.148438 1.484375 -0.140625 C 1.421875 -0.109375 1.363281 -0.0820312 1.3125 -0.0625 C 1.269531 -0.0390625 1.226562 -0.0195312 1.1875 0 C 1.15625 0.0078125 1.117188 0.015625 1.078125 0.015625 C 1.035156 0.015625 0.992188 0.015625 0.953125 0.015625 C 0.878906 0.015625 0.804688 0.00390625 0.734375 -0.015625 C 0.671875 -0.0351562 0.613281 -0.0664062 0.5625 -0.109375 C 0.507812 -0.160156 0.46875 -0.226562 0.4375 -0.3125 C 0.414062 -0.394531 0.40625 -0.492188 0.40625 -0.609375 L 0.40625 -1.53125 L 0.203125 -1.53125 C 0.191406 -1.53125 0.179688 -1.535156 0.171875 -1.546875 C 0.160156 -1.554688 0.15625 -1.566406 0.15625 -1.578125 C 0.15625 -1.585938 0.160156 -1.597656 0.171875 -1.609375 C 0.179688 -1.628906 0.191406 -1.640625 0.203125 -1.640625 L 0.40625 -1.640625 L 0.40625 -2.171875 C 0.40625 -2.222656 0.410156 -2.253906 0.421875 -2.265625 C 0.441406 -2.273438 0.460938 -2.28125 0.484375 -2.28125 C 0.515625 -2.28125 0.535156 -2.273438 0.546875 -2.265625 C 0.566406 -2.253906 0.578125 -2.222656 0.578125 -2.171875 L 0.578125 -1.640625 Z M 1.296875 -1.640625 "/></g></g></g><g fill="#4d433a" fill-opacity="1"><g transform="translate(534.259239, 296.895302)"><g><path d="M 1.296875 -1.578125 C 1.171875 -1.578125 1.054688 -1.566406 0.953125 -1.546875 C 0.847656 -1.523438 0.753906 -1.488281 0.671875 -1.4375 C 0.597656 -1.382812 0.539062 -1.316406 0.5 -1.234375 C 0.46875 -1.148438 0.445312 -1.050781 0.4375 -0.9375 L 2.078125 -0.9375 L 2.078125 -1.046875 C 2.078125 -1.117188 2.0625 -1.1875 2.03125 -1.25 C 2.007812 -1.320312 1.96875 -1.378906 1.90625 -1.421875 C 1.84375 -1.472656 1.757812 -1.507812 1.65625 -1.53125 C 1.5625 -1.5625 1.441406 -1.578125 1.296875 -1.578125 Z M 1.1875 -0.109375 C 1.320312 -0.109375 1.441406 -0.113281 1.546875 -0.125 C 1.648438 -0.144531 1.738281 -0.164062 1.8125 -0.1875 C 1.882812 -0.21875 1.941406 -0.242188 1.984375 -0.265625 C 2.035156 -0.296875 2.078125 -0.320312 2.109375 -0.34375 C 2.117188 -0.34375 2.125 -0.34375 2.125 -0.34375 C 2.144531 -0.34375 2.160156 -0.332031 2.171875 -0.3125 C 2.179688 -0.300781 2.1875 -0.285156 2.1875 -0.265625 C 2.1875 -0.253906 2.179688 -0.242188 2.171875 -0.234375 C 2.160156 -0.210938 2.128906 -0.1875 2.078125 -0.15625 C 2.035156 -0.132812 1.972656 -0.109375 1.890625 -0.078125 C 1.816406 -0.0546875 1.722656 -0.0351562 1.609375 -0.015625 C 1.492188 0.00390625 1.351562 0.015625 1.1875 0.015625 C 1.019531 0.015625 0.875 -0.00390625 0.75 -0.046875 C 0.632812 -0.0859375 0.539062 -0.144531 0.46875 -0.21875 C 0.394531 -0.289062 0.34375 -0.378906 0.3125 -0.484375 C 0.28125 -0.585938 0.265625 -0.707031 0.265625 -0.84375 C 0.265625 -1.007812 0.289062 -1.144531 0.34375 -1.25 C 0.394531 -1.363281 0.46875 -1.453125 0.5625 -1.515625 C 0.65625 -1.585938 0.765625 -1.632812 0.890625 -1.65625 C 1.015625 -1.6875 1.148438 -1.703125 1.296875 -1.703125 C 1.597656 -1.703125 1.820312 -1.644531 1.96875 -1.53125 C 2.125 -1.414062 2.203125 -1.253906 2.203125 -1.046875 C 2.203125 -1.023438 2.203125 -1 2.203125 -0.96875 C 2.203125 -0.945312 2.195312 -0.925781 2.1875 -0.90625 C 2.1875 -0.882812 2.179688 -0.863281 2.171875 -0.84375 C 2.160156 -0.832031 2.15625 -0.828125 2.15625 -0.828125 L 1.515625 -0.828125 L 0.4375 -0.84375 C 0.4375 -0.707031 0.453125 -0.59375 0.484375 -0.5 C 0.523438 -0.40625 0.578125 -0.328125 0.640625 -0.265625 C 0.703125 -0.210938 0.773438 -0.171875 0.859375 -0.140625 C 0.953125 -0.117188 1.0625 -0.109375 1.1875 -0.109375 Z M 1.1875 -0.109375 "/></g></g></g><g fill="#4d433a" fill-opacity="1"><g transform="translate(536.718188, 296.895302)"><g><path d="M 1.625 -1.65625 C 1.644531 -1.65625 1.65625 -1.644531 1.65625 -1.625 C 1.664062 -1.613281 1.671875 -1.601562 1.671875 -1.59375 C 1.671875 -1.570312 1.664062 -1.550781 1.65625 -1.53125 C 1.644531 -1.519531 1.625 -1.515625 1.59375 -1.515625 C 1.59375 -1.515625 1.585938 -1.515625 1.578125 -1.515625 C 1.515625 -1.535156 1.457031 -1.546875 1.40625 -1.546875 C 1.351562 -1.554688 1.296875 -1.5625 1.234375 -1.5625 C 1.148438 -1.5625 1.066406 -1.550781 0.984375 -1.53125 C 0.910156 -1.519531 0.84375 -1.5 0.78125 -1.46875 C 0.71875 -1.4375 0.660156 -1.394531 0.609375 -1.34375 C 0.566406 -1.289062 0.535156 -1.226562 0.515625 -1.15625 L 0.515625 -0.15625 C 0.515625 -0.113281 0.507812 -0.078125 0.5 -0.046875 C 0.488281 -0.015625 0.46875 0 0.4375 0 C 0.414062 0 0.394531 -0.00390625 0.375 -0.015625 C 0.363281 -0.0234375 0.351562 -0.0351562 0.34375 -0.046875 C 0.34375 -0.0546875 0.34375 -0.0703125 0.34375 -0.09375 C 0.34375 -0.113281 0.34375 -0.132812 0.34375 -0.15625 L 0.34375 -1.546875 C 0.34375 -1.578125 0.347656 -1.601562 0.359375 -1.625 C 0.367188 -1.65625 0.394531 -1.671875 0.4375 -1.671875 C 0.46875 -1.671875 0.488281 -1.65625 0.5 -1.625 C 0.507812 -1.601562 0.515625 -1.578125 0.515625 -1.546875 L 0.515625 -1.296875 C 0.535156 -1.378906 0.570312 -1.445312 0.625 -1.5 C 0.6875 -1.5625 0.753906 -1.601562 0.828125 -1.625 C 0.898438 -1.65625 0.972656 -1.675781 1.046875 -1.6875 C 1.117188 -1.695312 1.179688 -1.703125 1.234375 -1.703125 C 1.296875 -1.703125 1.34375 -1.703125 1.375 -1.703125 C 1.414062 -1.703125 1.453125 -1.695312 1.484375 -1.6875 C 1.515625 -1.6875 1.539062 -1.679688 1.5625 -1.671875 C 1.582031 -1.671875 1.601562 -1.664062 1.625 -1.65625 Z M 1.625 -1.65625 "/></g></g></g><g fill="#4d433a" fill-opacity="1"><g transform="translate(538.478623, 296.895302)"><g/></g></g><g fill="#4d433a" fill-opacity="1"><g transform="translate(539.479611, 296.895302)"><g><path d="M 1.921875 -0.296875 L 3.265625 -2.328125 C 3.285156 -2.359375 3.304688 -2.378906 3.328125 -2.390625 C 3.359375 -2.410156 3.382812 -2.421875 3.40625 -2.421875 C 3.425781 -2.421875 3.445312 -2.410156 3.46875 -2.390625 C 3.488281 -2.367188 3.5 -2.34375 3.5 -2.3125 L 3.5 -0.15625 C 3.5 -0.113281 3.492188 -0.078125 3.484375 -0.046875 C 3.472656 -0.015625 3.445312 0 3.40625 0 C 3.363281 0 3.335938 -0.015625 3.328125 -0.046875 C 3.316406 -0.078125 3.3125 -0.113281 3.3125 -0.15625 L 3.3125 -2.078125 L 2.03125 -0.1875 C 1.988281 -0.132812 1.953125 -0.109375 1.921875 -0.109375 C 1.878906 -0.109375 1.84375 -0.132812 1.8125 -0.1875 L 0.53125 -2.078125 L 0.53125 -0.15625 C 0.53125 -0.113281 0.523438 -0.078125 0.515625 -0.046875 C 0.503906 -0.015625 0.476562 0 0.4375 0 C 0.394531 0 0.367188 -0.015625 0.359375 -0.046875 C 0.347656 -0.078125 0.34375 -0.113281 0.34375 -0.15625 L 0.34375 -2.3125 C 0.34375 -2.34375 0.351562 -2.367188 0.375 -2.390625 C 0.394531 -2.410156 0.414062 -2.421875 0.4375 -2.421875 C 0.457031 -2.421875 0.476562 -2.410156 0.5 -2.390625 C 0.53125 -2.378906 0.554688 -2.359375 0.578125 -2.328125 Z M 1.921875 -0.296875 "/></g></g></g><g fill="#4d433a" fill-opacity="1"><g transform="translate(543.326886, 296.895302)"><g><path d="M 1.34375 0.015625 C 1.144531 0.015625 0.976562 0 0.84375 -0.03125 C 0.707031 -0.0703125 0.59375 -0.128906 0.5 -0.203125 C 0.414062 -0.273438 0.351562 -0.363281 0.3125 -0.46875 C 0.28125 -0.582031 0.265625 -0.707031 0.265625 -0.84375 C 0.265625 -0.988281 0.285156 -1.113281 0.328125 -1.21875 C 0.367188 -1.332031 0.429688 -1.425781 0.515625 -1.5 C 0.609375 -1.570312 0.722656 -1.625 0.859375 -1.65625 C 0.992188 -1.6875 1.15625 -1.703125 1.34375 -1.703125 C 1.53125 -1.703125 1.691406 -1.6875 1.828125 -1.65625 C 1.960938 -1.625 2.070312 -1.570312 2.15625 -1.5 C 2.25 -1.425781 2.316406 -1.332031 2.359375 -1.21875 C 2.398438 -1.113281 2.421875 -0.988281 2.421875 -0.84375 C 2.421875 -0.707031 2.398438 -0.582031 2.359375 -0.46875 C 2.328125 -0.363281 2.269531 -0.273438 2.1875 -0.203125 C 2.101562 -0.128906 1.988281 -0.0703125 1.84375 -0.03125 C 1.707031 0 1.539062 0.015625 1.34375 0.015625 Z M 1.34375 -0.109375 C 1.476562 -0.109375 1.59375 -0.117188 1.6875 -0.140625 C 1.78125 -0.160156 1.859375 -0.1875 1.921875 -0.21875 C 1.992188 -0.25 2.050781 -0.285156 2.09375 -0.328125 C 2.132812 -0.378906 2.164062 -0.429688 2.1875 -0.484375 C 2.21875 -0.546875 2.234375 -0.601562 2.234375 -0.65625 C 2.242188 -0.71875 2.25 -0.78125 2.25 -0.84375 C 2.25 -0.976562 2.234375 -1.09375 2.203125 -1.1875 C 2.171875 -1.28125 2.113281 -1.351562 2.03125 -1.40625 C 1.957031 -1.46875 1.863281 -1.507812 1.75 -1.53125 C 1.632812 -1.5625 1.5 -1.578125 1.34375 -1.578125 C 1.1875 -1.578125 1.050781 -1.5625 0.9375 -1.53125 C 0.820312 -1.507812 0.726562 -1.46875 0.65625 -1.40625 C 0.582031 -1.351562 0.523438 -1.28125 0.484375 -1.1875 C 0.453125 -1.09375 0.4375 -0.976562 0.4375 -0.84375 C 0.4375 -0.78125 0.441406 -0.71875 0.453125 -0.65625 C 0.460938 -0.601562 0.476562 -0.546875 0.5 -0.484375 C 0.519531 -0.429688 0.550781 -0.378906 0.59375 -0.328125 C 0.632812 -0.285156 0.6875 -0.25 0.75 -0.21875 C 0.820312 -0.1875 0.90625 -0.160156 1 -0.140625 C 1.101562 -0.117188 1.21875 -0.109375 1.34375 -0.109375 Z M 1.34375 -0.109375 "/></g></g></g><g fill="#4d433a" fill-opacity="1"><g transform="translate(546.025202, 296.895302)"><g><path d="M 1.34375 0.015625 C 1.144531 0.015625 0.976562 0 0.84375 -0.03125 C 0.707031 -0.0703125 0.59375 -0.128906 0.5 -0.203125 C 0.414062 -0.273438 0.351562 -0.363281 0.3125 -0.46875 C 0.28125 -0.582031 0.265625 -0.707031 0.265625 -0.84375 C 0.265625 -0.988281 0.285156 -1.113281 0.328125 -1.21875 C 0.367188 -1.332031 0.429688 -1.425781 0.515625 -1.5 C 0.609375 -1.570312 0.722656 -1.625 0.859375 -1.65625 C 0.992188 -1.6875 1.15625 -1.703125 1.34375 -1.703125 C 1.53125 -1.703125 1.691406 -1.6875 1.828125 -1.65625 C 1.960938 -1.625 2.070312 -1.570312 2.15625 -1.5 C 2.25 -1.425781 2.316406 -1.332031 2.359375 -1.21875 C 2.398438 -1.113281 2.421875 -0.988281 2.421875 -0.84375 C 2.421875 -0.707031 2.398438 -0.582031 2.359375 -0.46875 C 2.328125 -0.363281 2.269531 -0.273438 2.1875 -0.203125 C 2.101562 -0.128906 1.988281 -0.0703125 1.84375 -0.03125 C 1.707031 0 1.539062 0.015625 1.34375 0.015625 Z M 1.34375 -0.109375 C 1.476562 -0.109375 1.59375 -0.117188 1.6875 -0.140625 C 1.78125 -0.160156 1.859375 -0.1875 1.921875 -0.21875 C 1.992188 -0.25 2.050781 -0.285156 2.09375 -0.328125 C 2.132812 -0.378906 2.164062 -0.429688 2.1875 -0.484375 C 2.21875 -0.546875 2.234375 -0.601562 2.234375 -0.65625 C 2.242188 -0.71875 2.25 -0.78125 2.25 -0.84375 C 2.25 -0.976562 2.234375 -1.09375 2.203125 -1.1875 C 2.171875 -1.28125 2.113281 -1.351562 2.03125 -1.40625 C 1.957031 -1.46875 1.863281 -1.507812 1.75 -1.53125 C 1.632812 -1.5625 1.5 -1.578125 1.34375 -1.578125 C 1.1875 -1.578125 1.050781 -1.5625 0.9375 -1.53125 C 0.820312 -1.507812 0.726562 -1.46875 0.65625 -1.40625 C 0.582031 -1.351562 0.523438 -1.28125 0.484375 -1.1875 C 0.453125 -1.09375 0.4375 -0.976562 0.4375 -0.84375 C 0.4375 -0.78125 0.441406 -0.71875 0.453125 -0.65625 C 0.460938 -0.601562 0.476562 -0.546875 0.5 -0.484375 C 0.519531 -0.429688 0.550781 -0.378906 0.59375 -0.328125 C 0.632812 -0.285156 0.6875 -0.25 0.75 -0.21875 C 0.820312 -0.1875 0.90625 -0.160156 1 -0.140625 C 1.101562 -0.117188 1.21875 -0.109375 1.34375 -0.109375 Z M 1.34375 -0.109375 "/></g></g></g><g fill="#4d433a" fill-opacity="1"><g transform="translate(548.723517, 296.895302)"><g><path d="M 1.234375 0.015625 C 1.097656 0.015625 0.972656 0.00390625 0.859375 -0.015625 C 0.742188 -0.046875 0.640625 -0.09375 0.546875 -0.15625 C 0.460938 -0.21875 0.394531 -0.300781 0.34375 -0.40625 C 0.289062 -0.519531 0.265625 -0.660156 0.265625 -0.828125 C 0.265625 -0.984375 0.285156 -1.117188 0.328125 -1.234375 C 0.367188 -1.347656 0.429688 -1.4375 0.515625 -1.5 C 0.597656 -1.570312 0.695312 -1.625 0.8125 -1.65625 C 0.9375 -1.6875 1.078125 -1.703125 1.234375 -1.703125 C 1.390625 -1.703125 1.519531 -1.691406 1.625 -1.671875 C 1.738281 -1.660156 1.832031 -1.640625 1.90625 -1.609375 C 1.976562 -1.585938 2.039062 -1.554688 2.09375 -1.515625 C 2.144531 -1.484375 2.179688 -1.457031 2.203125 -1.4375 L 2.203125 -2.265625 C 2.203125 -2.285156 2.203125 -2.304688 2.203125 -2.328125 C 2.210938 -2.347656 2.21875 -2.363281 2.21875 -2.375 C 2.226562 -2.382812 2.238281 -2.394531 2.25 -2.40625 C 2.257812 -2.414062 2.273438 -2.421875 2.296875 -2.421875 C 2.316406 -2.421875 2.332031 -2.414062 2.34375 -2.40625 C 2.351562 -2.394531 2.359375 -2.382812 2.359375 -2.375 C 2.367188 -2.363281 2.375 -2.347656 2.375 -2.328125 C 2.382812 -2.316406 2.390625 -2.296875 2.390625 -2.265625 L 2.390625 -0.125 C 2.390625 -0.0703125 2.378906 -0.0351562 2.359375 -0.015625 C 2.335938 -0.00390625 2.316406 0 2.296875 0 C 2.273438 0 2.253906 -0.00390625 2.234375 -0.015625 C 2.210938 -0.0351562 2.203125 -0.0664062 2.203125 -0.109375 L 2.203125 -0.421875 C 2.191406 -0.359375 2.164062 -0.300781 2.125 -0.25 C 2.082031 -0.207031 2.03125 -0.171875 1.96875 -0.140625 C 1.914062 -0.109375 1.859375 -0.0820312 1.796875 -0.0625 C 1.734375 -0.0390625 1.664062 -0.0195312 1.59375 0 C 1.53125 0.0078125 1.460938 0.015625 1.390625 0.015625 C 1.328125 0.015625 1.273438 0.015625 1.234375 0.015625 Z M 1.234375 -0.109375 C 1.316406 -0.109375 1.410156 -0.113281 1.515625 -0.125 C 1.617188 -0.132812 1.71875 -0.15625 1.8125 -0.1875 C 1.90625 -0.21875 1.988281 -0.257812 2.0625 -0.3125 C 2.132812 -0.375 2.179688 -0.453125 2.203125 -0.546875 L 2.203125 -1.328125 C 2.171875 -1.359375 2.128906 -1.382812 2.078125 -1.40625 C 2.023438 -1.4375 1.957031 -1.460938 1.875 -1.484375 C 1.800781 -1.515625 1.710938 -1.535156 1.609375 -1.546875 C 1.503906 -1.566406 1.378906 -1.578125 1.234375 -1.578125 C 1.085938 -1.578125 0.960938 -1.5625 0.859375 -1.53125 C 0.765625 -1.507812 0.6875 -1.46875 0.625 -1.40625 C 0.5625 -1.34375 0.515625 -1.265625 0.484375 -1.171875 C 0.453125 -1.078125 0.4375 -0.960938 0.4375 -0.828125 C 0.4375 -0.691406 0.457031 -0.578125 0.5 -0.484375 C 0.539062 -0.390625 0.597656 -0.3125 0.671875 -0.25 C 0.742188 -0.195312 0.828125 -0.160156 0.921875 -0.140625 C 1.015625 -0.117188 1.117188 -0.109375 1.234375 -0.109375 Z M 1.234375 -0.109375 "/></g></g></g><g fill="#4d433a" fill-opacity="1"><g transform="translate(506.683876, 291.820611)"><g><path d="M 0.125 -0.03125 C 0.375 -0.03125 0.28125 -0.328125 0.328125 -0.546875 C 0.359375 -0.75 0.4375 -0.921875 0.53125 -1.0625 C 0.65625 -1.28125 0.703125 -1.28125 1.03125 -1.28125 C 1.125 -1.28125 1.25 -1.265625 1.359375 -1.265625 C 1.53125 -1.265625 1.65625 -1.28125 1.65625 -1.40625 C 1.65625 -1.515625 1.390625 -1.53125 1.15625 -1.53125 C 1 -1.53125 0.859375 -1.53125 0.78125 -1.53125 C 0.53125 -1.53125 0.46875 -1.359375 0.34375 -1.28125 C 0.34375 -1.390625 0.359375 -1.375 0.359375 -1.5 C 0.359375 -1.578125 0.359375 -1.6875 0.375 -1.765625 C 0.390625 -2 0.4375 -2.171875 0.21875 -2.171875 C 0.03125 -2.171875 0.015625 -1.28125 0.015625 -1.140625 C 0.015625 -0.921875 0.015625 -0.71875 0.015625 -0.515625 C 0.015625 -0.453125 -0.046875 -0.03125 0.125 -0.03125 Z M 0.125 -0.03125 "/></g></g></g><g fill="#4d433a" fill-opacity="1"><g transform="translate(508.064901, 291.820611)"><g><path d="M 0.390625 -1.53125 C 0.453125 -1.75 0.734375 -2.078125 0.953125 -2.125 C 0.9375 -1.84375 0.59375 -1.640625 0.390625 -1.53125 Z M 0.015625 -1.328125 C 0.015625 -1.09375 0 -0.875 0.203125 -0.671875 C 0.34375 -0.53125 0.515625 -0.46875 0.6875 -0.46875 C 1.21875 -0.46875 1.796875 -0.984375 2.109375 -1.296875 C 2.1875 -1.390625 2.1875 -1.40625 2.15625 -1.53125 C 1.90625 -1.53125 2.046875 -1.5 1.6875 -1.234375 C 1.640625 -1.1875 1.609375 -1.15625 1.546875 -1.09375 C 1.375 -0.96875 1.015625 -0.734375 0.71875 -0.734375 C 0.625 -0.734375 0.515625 -0.765625 0.4375 -0.84375 C 0.296875 -0.984375 0.3125 -1.125 0.3125 -1.296875 C 0.578125 -1.3125 0.875 -1.5625 1.015625 -1.703125 C 1.28125 -2.046875 1.28125 -2.375 0.90625 -2.375 C 0.5 -2.375 0.015625 -1.75 0.015625 -1.328125 Z M 0.015625 -1.328125 "/></g></g></g><g fill="#4d433a" fill-opacity="1"><g transform="translate(509.903443, 291.820611)"><g><path d="M 0.109375 1.390625 C 0.109375 1.0625 0.34375 0.671875 0.546875 0.4375 C 0.65625 0.3125 0.859375 0.0625 0.984375 -0.015625 C 0.984375 0.21875 1 0.40625 0.9375 0.59375 C 0.859375 0.875 0.671875 1.28125 0.453125 1.453125 C 0.390625 1.5 0.28125 1.578125 0.21875 1.578125 C 0.15625 1.578125 0.109375 1.53125 0.109375 1.390625 Z M 0.03125 -1.375 C 0.03125 -0.921875 0.625 -0.78125 0.875 -0.296875 C 0.75 -0.09375 -0.171875 0.640625 -0.171875 1.390625 C -0.171875 1.703125 0 1.859375 0.234375 1.859375 C 0.484375 1.859375 0.8125 1.671875 1.0625 1.25 C 1.625 0.28125 1.28125 -0.203125 1.3125 -0.328125 C 1.328125 -0.390625 1.9375 -0.84375 2.03125 -0.890625 L 2.59375 -1.28125 C 2.796875 -1.390625 2.8125 -1.546875 2.671875 -1.546875 C 2.59375 -1.546875 2.484375 -1.5 2.34375 -1.40625 L 1.5625 -0.859375 C 1.4375 -0.75 1.3125 -0.65625 1.171875 -0.5625 C 0.734375 -1.21875 0.109375 -1.1875 0.546875 -1.703125 C 0.671875 -1.84375 0.65625 -1.796875 0.859375 -1.859375 C 0.90625 -2.0625 0.828125 -2.15625 0.71875 -2.15625 C 0.46875 -2.15625 0.03125 -1.796875 0.03125 -1.375 Z M 0.03125 -1.375 "/></g></g></g><g fill="#4d433a" fill-opacity="1"><g transform="translate(512.35201, 291.820611)"><g><path d="M -2.375 -3.78125 C -2.375 -3.65625 -2.296875 -3.640625 -2.203125 -3.640625 C -2.15625 -3.640625 -2.09375 -3.640625 -2.0625 -3.65625 C -1.984375 -3.8125 -2.0625 -3.78125 -1.859375 -3.859375 C -1.75 -3.90625 -1.671875 -3.96875 -1.578125 -4 C -1.046875 -4.203125 -0.5625 -4.359375 -0.015625 -4.484375 C 0.078125 -4.515625 0.265625 -4.546875 0.328125 -4.5625 L 0.25 -3.78125 C 0.234375 -3.671875 0.234375 -3.484375 0.21875 -3.375 C 0.171875 -3.125 0.15625 -1.984375 0.15625 -1.65625 L 0.140625 -1.265625 C 0.140625 -0.640625 0.109375 0.359375 0.15625 0.96875 C 0.15625 1.171875 0.171875 1.484375 0.390625 1.484375 C 0.609375 1.484375 0.484375 0.890625 0.484375 0.703125 C 0.46875 0.328125 0.46875 -1.359375 0.5 -1.625 C 0.515625 -1.796875 0.5 -2.171875 0.5 -2.421875 C 0.5 -2.546875 0.53125 -2.546875 0.53125 -2.65625 C 0.53125 -2.734375 0.515625 -2.84375 0.53125 -2.90625 L 0.6875 -4.65625 C 0.890625 -4.6875 2.1875 -4.9375 2.65625 -4.9375 C 2.703125 -4.9375 2.75 -4.9375 2.78125 -4.921875 C 2.890625 -4.90625 2.859375 -4.9375 2.890625 -4.859375 C 3.203125 -4.859375 3.109375 -5.1875 2.703125 -5.1875 C 2.1875 -5.1875 1.6875 -5.109375 1.203125 -5.015625 C 1.078125 -5 0.890625 -4.953125 0.765625 -4.953125 C 0.765625 -5.21875 0.9375 -5 0.9375 -5.21875 C 0.9375 -5.265625 0.921875 -5.296875 0.921875 -5.328125 C 0.921875 -5.40625 0.9375 -5.34375 0.9375 -5.453125 C 0.9375 -5.578125 0.859375 -5.6875 0.765625 -5.6875 C 0.65625 -5.6875 0.53125 -5.53125 0.4375 -5.078125 C 0.375 -4.796875 0.40625 -4.875 0.046875 -4.78125 C -0.4375 -4.640625 -2.375 -4.15625 -2.375 -3.78125 Z M -2.375 -3.78125 "/></g></g></g><g fill="#4d433a" fill-opacity="1"><g transform="translate(513.334825, 291.820611)"><g><path d="M 0 -0.859375 C 0 -0.546875 0.03125 -0.40625 0.34375 -0.40625 C 0.578125 -0.40625 0.84375 -1.203125 1 -1.3125 C 1 -0.953125 1.28125 -0.515625 1.703125 -0.515625 C 1.84375 -0.515625 2 -0.5625 2.171875 -0.671875 L 2.4375 -0.875 C 2.859375 -1.296875 2.8125 -1.5 2.6875 -1.5 C 2.640625 -1.5 2.578125 -1.484375 2.53125 -1.421875 C 2.40625 -1.296875 2.390625 -1.21875 2.234375 -1.078125 C 2.046875 -0.890625 1.859375 -0.78125 1.703125 -0.78125 C 1.53125 -0.78125 1.375 -0.921875 1.296875 -1.234375 C 1.234375 -1.546875 1.375 -1.9375 1.078125 -1.9375 C 0.96875 -1.9375 0.625 -1.21875 0.453125 -0.953125 L 0.375 -0.84375 C 0.34375 -0.796875 0.359375 -0.828125 0.34375 -0.796875 C 0.34375 -1.078125 0.453125 -1.40625 0.5625 -1.578125 C 0.8125 -2 0.984375 -2.125 1.109375 -2.125 C 1.265625 -2.125 1.375 -1.9375 1.484375 -1.9375 C 1.703125 -1.9375 1.484375 -2.40625 1.09375 -2.40625 C 0.5 -2.40625 0 -1.34375 0 -0.859375 Z M 0 -0.859375 "/></g></g></g><g fill="#4d433a" fill-opacity="1"><g transform="translate(515.791863, 291.820611)"><g><path d="M 0.015625 -1.03125 C 0.015625 -0.75 -0.03125 -0.328125 0.359375 -0.328125 C 0.625 -0.328125 1.015625 -0.96875 1.15625 -1.21875 C 1.203125 -1.296875 1.328125 -1.5 1.390625 -1.546875 C 1.390625 -1.140625 1.421875 -0.4375 1.984375 -0.4375 C 2.234375 -0.4375 2.515625 -0.609375 2.75 -0.828125 C 2.84375 -0.921875 3.234375 -1.234375 3.234375 -1.375 C 3.234375 -1.46875 3.171875 -1.484375 3.09375 -1.484375 C 2.9375 -1.484375 2.375 -0.703125 2 -0.703125 C 1.84375 -0.703125 1.71875 -0.84375 1.671875 -1.25 C 1.640625 -1.46875 1.75 -2.03125 1.53125 -2.03125 C 1.359375 -2.03125 1.3125 -1.890625 1.203125 -1.734375 L 0.6875 -0.984375 C 0.609375 -0.875 0.515625 -0.71875 0.375 -0.671875 C 0.25 -1.25 0.765625 -2.140625 0.765625 -2.171875 C 0.765625 -2.25 0.75 -2.25 0.734375 -2.296875 C 0.671875 -2.34375 0.625 -2.34375 0.578125 -2.34375 C 0.515625 -2.34375 0.453125 -2.3125 0.390625 -2.25 C 0.1875 -1.96875 0.015625 -1.390625 0.015625 -1.03125 Z M 0.015625 -1.03125 "/></g></g></g><g fill="#4d433a" fill-opacity="1"><g transform="translate(518.655585, 291.820611)"><g><path d="M 0.125 -0.03125 C 0.375 -0.03125 0.28125 -0.328125 0.328125 -0.546875 C 0.359375 -0.75 0.4375 -0.921875 0.53125 -1.0625 C 0.65625 -1.28125 0.703125 -1.28125 1.03125 -1.28125 C 1.125 -1.28125 1.25 -1.265625 1.359375 -1.265625 C 1.53125 -1.265625 1.65625 -1.28125 1.65625 -1.40625 C 1.65625 -1.515625 1.390625 -1.53125 1.15625 -1.53125 C 1 -1.53125 0.859375 -1.53125 0.78125 -1.53125 C 0.53125 -1.53125 0.46875 -1.359375 0.34375 -1.28125 C 0.34375 -1.390625 0.359375 -1.375 0.359375 -1.5 C 0.359375 -1.578125 0.359375 -1.6875 0.375 -1.765625 C 0.390625 -2 0.4375 -2.171875 0.21875 -2.171875 C 0.03125 -2.171875 0.015625 -1.28125 0.015625 -1.140625 C 0.015625 -0.921875 0.015625 -0.71875 0.015625 -0.515625 C 0.015625 -0.453125 -0.046875 -0.03125 0.125 -0.03125 Z M 0.125 -0.03125 "/></g></g></g><g fill="#4d433a" fill-opacity="1"><g transform="translate(520.03661, 291.820611)"><g><path d="M 0 -0.859375 C 0 -0.546875 0.03125 -0.40625 0.34375 -0.40625 C 0.578125 -0.40625 0.84375 -1.203125 1 -1.3125 C 1 -0.953125 1.28125 -0.515625 1.703125 -0.515625 C 1.84375 -0.515625 2 -0.5625 2.171875 -0.671875 L 2.4375 -0.875 C 2.859375 -1.296875 2.8125 -1.5 2.6875 -1.5 C 2.640625 -1.5 2.578125 -1.484375 2.53125 -1.421875 C 2.40625 -1.296875 2.390625 -1.21875 2.234375 -1.078125 C 2.046875 -0.890625 1.859375 -0.78125 1.703125 -0.78125 C 1.53125 -0.78125 1.375 -0.921875 1.296875 -1.234375 C 1.234375 -1.546875 1.375 -1.9375 1.078125 -1.9375 C 0.96875 -1.9375 0.625 -1.21875 0.453125 -0.953125 L 0.375 -0.84375 C 0.34375 -0.796875 0.359375 -0.828125 0.34375 -0.796875 C 0.34375 -1.078125 0.453125 -1.40625 0.5625 -1.578125 C 0.8125 -2 0.984375 -2.125 1.109375 -2.125 C 1.265625 -2.125 1.375 -1.9375 1.484375 -1.9375 C 1.703125 -1.9375 1.484375 -2.40625 1.09375 -2.40625 C 0.5 -2.40625 0 -1.34375 0 -0.859375 Z M 0 -0.859375 "/></g></g></g><g fill="#4d433a" fill-opacity="1"><g transform="translate(522.493648, 291.820611)"><g><path d="M 0.234375 -0.4375 C 0.5625 -0.4375 0.90625 -1.53125 1.1875 -1.703125 C 1.265625 -1.546875 1.140625 -1.21875 1.3125 -0.703125 C 1.390625 -0.46875 1.53125 -0.25 1.796875 -0.25 C 1.84375 -0.25 1.890625 -0.25 1.953125 -0.265625 C 2.15625 -0.328125 2.421875 -0.65625 2.546875 -0.8125 C 2.59375 -0.875 3.09375 -1.5 2.765625 -1.5 C 2.609375 -1.5 2.15625 -0.5 1.828125 -0.5 C 1.5 -0.5 1.484375 -1.25 1.484375 -1.46875 L 1.4375 -1.9375 C 1.390625 -2.03125 1.34375 -2.078125 1.28125 -2.078125 C 1.078125 -2.078125 0.828125 -1.640625 0.765625 -1.546875 L 0.359375 -0.9375 C 0.359375 -1.59375 0.921875 -2.390625 0.546875 -2.390625 C 0.21875 -2.390625 -0.3125 -0.4375 0.234375 -0.4375 Z M 0.234375 -0.4375 "/></g></g></g><g fill="#4d433a" fill-opacity="1"><g transform="translate(525.035413, 291.820611)"><g><path d="M -2.375 -3.78125 C -2.375 -3.65625 -2.296875 -3.640625 -2.203125 -3.640625 C -2.15625 -3.640625 -2.09375 -3.640625 -2.0625 -3.65625 C -1.984375 -3.8125 -2.0625 -3.78125 -1.859375 -3.859375 C -1.75 -3.90625 -1.671875 -3.96875 -1.578125 -4 C -1.046875 -4.203125 -0.5625 -4.359375 -0.015625 -4.484375 C 0.078125 -4.515625 0.265625 -4.546875 0.328125 -4.5625 L 0.25 -3.78125 C 0.234375 -3.671875 0.234375 -3.484375 0.21875 -3.375 C 0.171875 -3.125 0.15625 -1.984375 0.15625 -1.65625 L 0.140625 -1.265625 C 0.140625 -0.640625 0.109375 0.359375 0.15625 0.96875 C 0.15625 1.171875 0.171875 1.484375 0.390625 1.484375 C 0.609375 1.484375 0.484375 0.890625 0.484375 0.703125 C 0.46875 0.328125 0.46875 -1.359375 0.5 -1.625 C 0.515625 -1.796875 0.5 -2.171875 0.5 -2.421875 C 0.5 -2.546875 0.53125 -2.546875 0.53125 -2.65625 C 0.53125 -2.734375 0.515625 -2.84375 0.53125 -2.90625 L 0.6875 -4.65625 C 0.890625 -4.6875 2.1875 -4.9375 2.65625 -4.9375 C 2.703125 -4.9375 2.75 -4.9375 2.78125 -4.921875 C 2.890625 -4.90625 2.859375 -4.9375 2.890625 -4.859375 C 3.203125 -4.859375 3.109375 -5.1875 2.703125 -5.1875 C 2.1875 -5.1875 1.6875 -5.109375 1.203125 -5.015625 C 1.078125 -5 0.890625 -4.953125 0.765625 -4.953125 C 0.765625 -5.21875 0.9375 -5 0.9375 -5.21875 C 0.9375 -5.265625 0.921875 -5.296875 0.921875 -5.328125 C 0.921875 -5.40625 0.9375 -5.34375 0.9375 -5.453125 C 0.9375 -5.578125 0.859375 -5.6875 0.765625 -5.6875 C 0.65625 -5.6875 0.53125 -5.53125 0.4375 -5.078125 C 0.375 -4.796875 0.40625 -4.875 0.046875 -4.78125 C -0.4375 -4.640625 -2.375 -4.15625 -2.375 -3.78125 Z M -2.375 -3.78125 "/></g></g></g><g fill="#4d433a" fill-opacity="1"><g transform="translate(526.020969, 291.820611)"><g/></g></g></svg>
